<svg xmlns="http://www.w3.org/2000/svg" xmlns:xlink="http://www.w3.org/1999/xlink" fill="none" viewBox="0 0 214 34"><path fill="#6d5337" d="M48.307 28.018h8.349V33.7H42.045V1.894h6.36v26.124zM37.572 9.77v15.854c0 5.384-3.18 8.275-8.35 8.275-5.168 0-8.349-2.891-8.349-8.275V9.77c0-5.384 3.18-8.275 8.35-8.275 5.168 0 8.349 2.891 8.349 8.275m-6.362-.299c0-1.495-.497-2.393-2.087-2.393s-2.087.898-2.087 2.393v16.551c0 1.496.497 2.393 2.087 2.393s2.087-.897 2.087-2.393zm-14.412.499v15.454c0 5.484-2.982 8.176-8.15 8.176H0V1.894h8.647c5.17 0 8.151 2.693 8.151 8.077m-6.262-.2c0-1.495-.398-2.393-1.988-2.393H6.361v20.54h2.187c1.491 0 1.988-.898 1.988-2.393zm55.86-7.877h-6.36v31.807h14.71v-5.683h-8.35zm98.005 31.707h6.362V1.894h-6.362zM152.176 1.496c-5.169 0-8.052 2.99-8.052 8.275 0 8.974 9.94 10.37 9.94 16.252 0 1.496-.497 2.393-2.087 2.393s-2.088-.897-2.088-2.393v-2.791h-6.063v2.492c0 5.384 2.982 8.276 8.151 8.276s8.15-2.892 8.15-8.276c0-8.973-9.939-10.27-9.939-16.152 0-1.496.397-2.393 1.988-2.393s1.987.897 1.987 2.393v1.894h6.064V9.871c0-5.384-2.883-8.375-8.051-8.375M214 9.77v15.854c0 5.384-3.181 8.275-8.349 8.275s-8.35-2.891-8.35-8.275V9.77c0-5.384 3.181-8.275 8.35-8.275 5.268 0 8.349 2.891 8.349 8.275m-6.262-.299c0-1.495-.497-2.393-2.087-2.393s-2.088.898-2.088 2.393v16.551c0 1.496.497 2.393 2.088 2.393 1.59 0 2.087-.897 2.087-2.393zm-20.674 7.977L181.1 1.894h-5.566v31.807h5.765V18.546l6.063 15.055h5.566v-1.894l-.099-29.912h-5.765zm-46.071 14.254h.249V33.7h-6.361l-.994-5.584h-4.374l-.994 5.584h-6.367v-1.998h.284l6.083-29.809h6.163zm-8.2-8.97-1.192-6.88-1.193 6.88h2.385M110.926 1.496c-5.168 0-8.15 2.891-8.15 8.275v15.854c0 5.384 2.982 8.275 8.15 8.275s8.151-2.891 8.151-8.275v-4.687h-6.064v5.086c0 1.495-.497 2.392-2.087 2.392s-2.087-.897-2.087-2.393V9.473c0-1.496.497-2.394 2.087-2.394s2.087.898 2.087 2.393v3.889h6.064V9.77c.099-5.384-2.883-8.275-8.151-8.275m-18.587.398h-5.268l-3.479 12.264-3.479-12.264h-5.847L74.05.386h-.596v1.508l6.56 21.138v10.669h6.361V23.032l6.66-21.138V.386h-.795v1.508z"/><path fill="url(#a)" fill-rule="evenodd" d="M197.301 23.755V8.147c0-5.3 3.181-8.147 8.35-8.147S214 2.847 214 8.147v15.608c0 5.3-3.181 8.147-8.349 8.147-5.169.098-8.35-2.847-8.35-8.147M0 31.705V.393h8.647c5.17 0 8.151 2.65 8.151 8.049v15.214c0 5.301-2.982 8.05-8.15 8.05zM6.361 5.89v20.22h2.187c1.59 0 1.988-.883 1.988-2.355V8.147c0-1.472-.497-2.356-1.988-2.356H6.361zm14.413 17.865V8.147c0-5.3 3.18-8.147 8.35-8.147 5.168 0 8.348 2.847 8.348 8.147v15.608c0 5.3-3.18 8.147-8.349 8.147-5.169.098-8.35-2.847-8.35-8.147m6.361-15.902v16.294c0 1.473.497 2.356 2.087 2.356s2.088-.883 2.088-2.356V7.853c0-1.473-.497-2.356-2.087-2.356s-2.088.883-2.088 2.356M48.307 26.11h8.349v5.497H42.045V.393h6.36V26.11zm18.09 0h8.349v5.497h-14.71V.393h6.36zm13.617-4.907v10.503h6.361V21.203l6.66-20.81h-6.163l-3.38 12.073L80.015.393h-6.56zm33.099-1.964h6.063v4.614c0 5.3-2.982 8.147-8.15 8.147s-8.151-2.847-8.151-8.147V8.147c0-5.3 2.982-8.147 8.151-8.147s8.15 2.847 8.15 8.147v3.534h-6.063V7.853c0-1.473-.497-2.356-2.087-2.356s-2.088.883-2.088 2.356v16.294c0 1.473.497 2.356 2.088 2.356 1.59 0 2.087-.883 2.087-2.356zm18.488 6.97h2.186l.994 5.497h6.461L134.781.393h-6.162l-6.461 31.313h6.461l.994-5.497zm0-12.172 1.192 6.773h-2.385zm12.424-5.89c0-5.202 2.883-8.147 8.051-8.147s8.051 2.945 8.051 8.147v1.57h-6.063V7.854c0-1.473-.397-2.356-1.988-2.356s-1.988.883-1.988 2.356c0 5.791 9.94 7.067 9.94 16 0 5.3-2.982 8.147-8.151 8.147s-8.15-2.847-8.15-8.147V21.3h6.063v2.748c0 1.473.497 2.356 2.087 2.356s2.088-.884 2.088-2.356c0-5.693-9.94-6.97-9.94-15.902m20.376 23.559V.393h6.362v31.313zm16.898-14.92v14.821h-5.765V.393h5.665l5.964 15.41V.394h5.765v31.313h-5.467zm22.364-8.933v16.294c0 1.473.497 2.356 2.087 2.356s2.087-.883 2.087-2.356V7.853c0-1.473-.497-2.356-2.087-2.356-1.69 0-2.087.883-2.087 2.356" clip-rule="evenodd"/><path fill="url(#b)" fill-opacity=".75" fill-rule="evenodd" d="M205.645 31.607h.006c2.53 0 4.535-.696 5.905-2.003 1.37-1.305 2.146-3.258 2.146-5.85V8.148c0-2.591-.776-4.544-2.146-5.85S208.181.295 205.651.295s-4.535.697-5.906 2.004c-1.369 1.305-2.145 3.258-2.145 5.85v15.607c0 2.592.776 4.57 2.146 5.887 1.37 1.318 3.373 2.013 5.899 1.965M6.063 26.405V5.497h2.485c.808 0 1.408.243 1.79.742.37.482.496 1.15.496 1.908v15.608c0 .747-.097 1.418-.454 1.903-.374.508-.98.747-1.832.747zm23.054 5.202h.006c2.53 0 4.535-.696 5.906-2.003 1.369-1.305 2.145-3.258 2.145-5.85V8.148c0-2.591-.776-4.544-2.145-5.85C33.658.992 31.653.295 29.123.295s-4.535.697-5.906 2.004c-1.369 1.305-2.145 3.258-2.145 5.85v15.607c0 2.592.777 4.57 2.146 5.887 1.37 1.318 3.373 2.013 5.9 1.965m19.289-5.497V.393h-6.361v31.214h14.61V26.11zm7.952.295h-8.051v-.295h-.2V.687h-5.764v30.626h14.015zm9.74 0V.687h-5.764v30.626h14.114v-4.908zm.299-.295V.393h-6.362v31.214h14.71V26.11zm13.915-4.952V31.41h5.765V21.157l6.55-20.47H87.1l-3.602 12.87L79.789.687h-5.93zm-.298.044v10.503h6.361V21.204l6.66-20.81h-6.163l-3.38 12.073L80.015.393h-6.56zm54.023 4.712.994 5.497h5.846L134.538.687h-5.676l-6.339 30.724h5.846l.994-5.497zm-5.418 5.791h-6.461L128.619.393h6.162l6.461 31.313h-6.461l-.994-5.497h-4.174zm4.529-10.6h-3.095l1.254-7.119h.587zM181 16.784l.575-.11 6.087 14.736h4.968V.687h-5.169v15.117l-.577.105-5.89-15.222h-5.162v30.626H181zm.199-16.392 5.964 15.41V.394h5.765v31.313h-5.467l-6.162-14.92v14.821h-5.765V.393zm24.452 31.509c5.168 0 8.349-2.847 8.349-8.147V8.147c0-5.3-3.181-8.147-8.349-8.147s-8.35 2.847-8.35 8.147v15.608c0 5.3 3.181 8.245 8.35 8.147M.298.687v30.724h8.35c2.532 0 4.485-.673 5.804-1.952s2.048-3.206 2.048-5.803V8.442c0-2.648-.73-4.573-2.047-5.838C13.135 1.337 11.183.687 8.647.687zm8.25 25.423c1.59 0 1.988-.883 1.988-2.355V8.147c0-1.472-.497-2.356-1.988-2.356H6.361v20.32zm20.575 5.792c5.169 0 8.35-2.847 8.35-8.147V8.147c0-5.3-3.181-8.147-8.35-8.147s-8.35 2.847-8.35 8.147v15.608c0 5.3 3.182 8.245 8.35 8.147m-2.286-7.755V7.853c0-.758.125-1.429.511-1.913.399-.499 1.023-.738 1.875-.738.85 0 1.475.24 1.874.738.386.484.511 1.155.511 1.913v16.294c0 .758-.125 1.429-.511 1.913-.399.499-1.023.738-1.875.738-.85 0-1.476-.24-1.874-.738-.386-.484-.511-1.155-.511-1.913m92.041-4.613h-5.467v4.613c0 .758-.125 1.429-.511 1.913-.399.499-1.023.738-1.874.738s-1.476-.24-1.875-.738c-.385-.484-.511-1.155-.511-1.913V7.853c0-.758.126-1.429.511-1.913.399-.499 1.023-.738 1.875-.738.851 0 1.475.24 1.874.738.386.484.511 1.155.511 1.913v3.534h5.467v-3.24c0-2.597-.73-4.55-2.05-5.853-1.32-1.304-3.272-2-5.802-2-2.531 0-4.483.696-5.803 2s-2.05 3.256-2.05 5.853v15.706c0 2.597.73 4.55 2.05 5.853 1.32 1.304 3.272 2 5.803 2 2.53 0 4.482-.696 5.802-2s2.05-3.256 2.05-5.853zm12.723-5.497-1.193 6.773h2.385zm14.725-11.709c-1.297 1.316-2.003 3.27-2.003 5.82 0 4.331 2.397 6.808 4.868 8.943q.41.352.819.698c.955.807 1.888 1.596 2.627 2.437.959 1.09 1.626 2.304 1.626 3.823 0 .758-.126 1.429-.511 1.912-.399.5-1.023.738-1.875.738-.851 0-1.476-.238-1.874-.738-.386-.483-.511-1.154-.511-1.912v-2.454h-5.467v2.258c0 2.597.73 4.55 2.05 5.853 1.32 1.304 3.272 2 5.802 2 2.531 0 4.483-.696 5.803-2s2.05-3.256 2.05-5.853c0-4.332-2.397-6.81-4.869-8.957a96 96 0 0 0-.789-.677c-.966-.822-1.91-1.627-2.657-2.487-.96-1.106-1.625-2.337-1.625-3.88 0-.747.098-1.418.455-1.903.374-.507.98-.747 1.831-.747.852 0 1.458.24 1.832.747.357.485.454 1.156.454 1.904v1.57h5.467V8.147c0-2.549-.705-4.503-2.003-5.819-1.296-1.315-3.223-2.034-5.75-2.034s-4.454.72-5.75 2.034m18.373-1.64V31.41h5.765V.687zm38.666 23.46V7.852c0-.747.097-1.422.47-1.908.389-.507 1.02-.743 1.915-.743.851 0 1.476.24 1.874.738.386.484.512 1.155.512 1.913v16.294c0 .758-.126 1.429-.512 1.913-.398.499-1.023.738-1.874.738s-1.476-.24-1.874-.738c-.386-.484-.511-1.155-.511-1.913M0 31.705h8.647c5.17 0 8.151-2.749 8.151-8.05V8.442c0-5.4-2.982-8.05-8.15-8.05H0zm27.135-7.559V7.853c0-1.473.497-2.356 2.087-2.356s2.088.883 2.088 2.356v16.294c0 1.473-.497 2.356-2.087 2.356s-2.088-.883-2.088-2.356m85.978-4.908v4.908c0 1.473-.497 2.356-2.087 2.356s-2.088-.883-2.088-2.356V7.853c0-1.473.497-2.356 2.088-2.356 1.59 0 2.087.883 2.087 2.356v3.828h6.063V8.147c0-5.3-2.982-8.147-8.15-8.147s-8.151 2.847-8.151 8.147v15.706c0 5.3 2.982 8.147 8.151 8.147s8.15-2.847 8.15-8.147v-4.614zM152.076 0c-5.168 0-8.051 2.945-8.051 8.147 0 4.967 3.073 7.567 5.802 9.875 2.179 1.843 4.138 3.5 4.138 6.027 0 1.473-.497 2.356-2.088 2.356-1.59 0-2.087-.884-2.087-2.356v-2.748h-6.063v2.552c0 5.3 2.982 8.147 8.15 8.147s8.151-2.847 8.151-8.147c0-4.948-3.05-7.547-5.771-9.865-2.191-1.867-4.169-3.552-4.169-6.135 0-1.473.398-2.356 1.988-2.356 1.591 0 1.988.883 1.988 2.356v1.865h6.063v-1.57c0-5.203-2.882-8.148-8.051-8.148m12.325 31.706h6.362V.393h-6.362zm39.262-7.559V7.853c0-1.473.397-2.356 2.087-2.356 1.59 0 2.087.883 2.087 2.356v16.294c0 1.473-.497 2.356-2.087 2.356s-2.087-.883-2.087-2.356" clip-rule="evenodd"/><path fill="url(#c)" d="M107.005 4.252c.896-.99 2.272-1.473 3.628-1.473h1.025c1.378 0 2.646.589 3.615 1.46l.01.008.008.01c.872.967 1.461 2.232 1.461 3.604v1.641h-.871v-1.64c0-1.151-.444-2.296-1.232-3.083a4.2 4.2 0 0 0-2.991-1.23h-1.025c-1.14 0-2.289.53-2.99 1.23-.79.789-1.232 1.842-1.232 3.082v16.65c0 1.15.444 2.295 1.232 3.082a4.2 4.2 0 0 0 2.99 1.23h1.025c1.141 0 2.289-.53 2.991-1.23.79-.788 1.232-1.841 1.232-3.082v-2.665h.871v2.572c0 1.458-.584 2.727-1.465 3.61-.896.99-2.272 1.472-3.629 1.472h-1.025c-1.377 0-2.646-.589-3.614-1.46l-.01-.008-.009-.01c-.871-.967-1.46-2.232-1.46-3.604V7.86c0-1.458.584-2.727 1.465-3.61"/><path fill="url(#d)" d="M77.228 2.779h.797l5.125 17.054 5.124-17.054h.892l-5.58 18.605v8.023h-.871v-8.024z"/><path fill="url(#e)" d="M44.61 2.872h.871v25.671h8.664v.864H44.61z"/><path fill="url(#f)" d="M62.87 2.872h.871v25.671h8.665v.864H62.87z"/><path fill="url(#g)" d="M167.215 2.872h.87v26.535h-.87z"/><path fill="url(#h)" d="M178.208 2.872h1.069l10.111 24.566V2.872h.87v26.535h-.975L179.079 4.742v24.665h-.871z"/><path fill="url(#i)" fill-rule="evenodd" d="M205.382 2.686c-1.379 0-2.652.59-3.625 1.561-.883.882-1.469 2.153-1.469 3.614v16.557c0 1.372.589 2.637 1.46 3.604l.009.01.01.009c.968.87 2.237 1.459 3.615 1.459h1.024c1.357 0 2.733-.482 3.629-1.473.881-.882 1.465-2.15 1.465-3.61V7.769c0-1.372-.589-2.637-1.46-3.604l-.009-.01-.01-.009c-.968-.87-2.237-1.459-3.615-1.459zm0 .864c-1.141 0-2.29.529-2.991 1.229-.79.789-1.232 1.842-1.232 3.082v16.65c0 1.15.444 2.295 1.232 3.082a4.2 4.2 0 0 0 2.991 1.23h1.024c1.141 0 2.289-.53 2.991-1.23.79-.788 1.232-1.841 1.232-3.082V7.86c0-1.15-.444-2.295-1.232-3.082a4.2 4.2 0 0 0-2.991-1.23z" clip-rule="evenodd"/><path fill="url(#j)" fill-rule="evenodd" d="M148.452 27.228c-.734-.774-1.049-1.923-1.049-3.276v-.245h-.871v.245c0 1.625.479 3.09 1.469 4.08.894.892 2.266 1.468 4.091 1.468h.482c1.454-.097 2.724-.679 3.608-1.561.892-.89 1.376-2.166 1.376-3.614v-.385c-.192-3.734-2.784-6.122-5.189-8.34l-.014-.012c-2.439-2.248-4.673-4.316-4.673-7.54 0-1.43.445-2.486 1.145-3.274.786-.782 1.836-1.224 3.265-1.224 1.915 0 3.034.453 3.712 1.295.61.874.883 2.026.883 3.389v.245h.928v-.245c0-1.418-.339-3.066-1.136-4.06l-.001-.002c-.901-1.099-2.289-1.672-4.386-1.672-1.639 0-2.918.484-3.904 1.468-.898.896-1.376 2.268-1.376 3.893 0 3.46 2.371 5.733 4.707 7.972l.213.204.003.003.176.163c2.368 2.188 4.598 4.419 4.776 7.663v.366c0 1.242-.443 2.3-1.149 3.093-.689.773-1.735 1.22-3.083 1.311h-.363c-1.62 0-2.764-.538-3.456-1.23l-.01-.008a3 3 0 0 1-.174-.17" clip-rule="evenodd"/><path fill="url(#k)" fill-rule="evenodd" d="M127.605 24.291h8.167l1.118 5.209h.787l-5.506-26.535h-.965L125.7 29.5h.787zm4.13-19.785-3.933 18.922h7.867z" clip-rule="evenodd"/><path fill="url(#l)" fill-rule="evenodd" d="M28.556 2.686c-1.38 0-2.652.59-3.625 1.561-.883.882-1.469 2.153-1.469 3.614v16.557c0 1.372.589 2.637 1.46 3.604l.01.01.009.009c.968.87 2.237 1.459 3.615 1.459h1.024c1.357 0 2.733-.482 3.63-1.473.88-.882 1.464-2.15 1.464-3.61V7.769c0-1.372-.589-2.637-1.46-3.604l-.01-.01-.009-.009c-.968-.87-2.237-1.459-3.615-1.459zm0 .864c-1.141 0-2.29.529-2.99 1.229-.79.789-1.233 1.842-1.233 3.082v16.65c0 1.15.444 2.295 1.232 3.082a4.2 4.2 0 0 0 2.99 1.23h1.025c1.141 0 2.29-.53 2.99-1.23.79-.788 1.233-1.841 1.233-3.082V7.86c0-1.15-.444-2.295-1.232-3.082a4.2 4.2 0 0 0-2.99-1.23z" clip-rule="evenodd"/><path fill="url(#m)" fill-rule="evenodd" d="M12.429 4.34c-.886-.884-2.254-1.468-3.624-1.468H2.5v26.535h6.305c1.377 0 2.646-.589 3.615-1.459l.009-.01c.884-.881 1.47-2.152 1.47-3.613V7.955c0-1.373-.59-2.639-1.46-3.606zm-.644.614c-.69-.774-1.827-1.218-2.98-1.218H3.37v24.807h5.434a4.2 4.2 0 0 0 2.99-1.229 4.18 4.18 0 0 0 1.233-2.99V7.955c0-1.145-.44-2.199-1.233-2.99l-.005-.004z" clip-rule="evenodd"/><defs><linearGradient id="a" x1="74.705" x2="134.505" y1="48.632" y2="-17.236" gradientUnits="userSpaceOnUse"><stop stop-color="#c39464"/><stop offset=".34" stop-color="#ffe7bd"/><stop offset=".7" stop-color="#c39464"/><stop offset="1" stop-color="#ffe7bd"/></linearGradient><linearGradient id="b" x1="107" x2="107" y1="0" y2="32" gradientUnits="userSpaceOnUse"><stop stop-color="#fae2bc"/><stop offset="1" stop-color="#684e33"/><stop offset="1" stop-color="#6d5337"/></linearGradient><linearGradient id="c" x1="76.15" x2="125.32" y1="44.042" y2="-18.7" gradientUnits="userSpaceOnUse"><stop stop-color="#0e2829"/><stop offset=".34" stop-color="#0a3234"/><stop offset=".7" stop-color="#0e2829"/><stop offset="1" stop-color="#0a3234"/></linearGradient><linearGradient id="d" x1="76.15" x2="125.32" y1="44.042" y2="-18.7" gradientUnits="userSpaceOnUse"><stop stop-color="#0e2829"/><stop offset=".34" stop-color="#0a3234"/><stop offset=".7" stop-color="#0e2829"/><stop offset="1" stop-color="#0a3234"/></linearGradient><linearGradient id="e" x1="76.15" x2="125.32" y1="44.042" y2="-18.7" gradientUnits="userSpaceOnUse"><stop stop-color="#0e2829"/><stop offset=".34" stop-color="#0a3234"/><stop offset=".7" stop-color="#0e2829"/><stop offset="1" stop-color="#0a3234"/></linearGradient><linearGradient id="f" x1="76.15" x2="125.32" y1="44.042" y2="-18.7" gradientUnits="userSpaceOnUse"><stop stop-color="#0e2829"/><stop offset=".34" stop-color="#0a3234"/><stop offset=".7" stop-color="#0e2829"/><stop offset="1" stop-color="#0a3234"/></linearGradient><linearGradient id="g" x1="76.15" x2="125.32" y1="44.042" y2="-18.7" gradientUnits="userSpaceOnUse"><stop stop-color="#0e2829"/><stop offset=".34" stop-color="#0a3234"/><stop offset=".7" stop-color="#0e2829"/><stop offset="1" stop-color="#0a3234"/></linearGradient><linearGradient id="h" x1="76.15" x2="125.32" y1="44.042" y2="-18.7" gradientUnits="userSpaceOnUse"><stop stop-color="#0e2829"/><stop offset=".34" stop-color="#0a3234"/><stop offset=".7" stop-color="#0e2829"/><stop offset="1" stop-color="#0a3234"/></linearGradient><linearGradient id="i" x1="76.15" x2="125.32" y1="44.042" y2="-18.7" gradientUnits="userSpaceOnUse"><stop stop-color="#0e2829"/><stop offset=".34" stop-color="#0a3234"/><stop offset=".7" stop-color="#0e2829"/><stop offset="1" stop-color="#0a3234"/></linearGradient><linearGradient id="j" x1="76.15" x2="125.32" y1="44.042" y2="-18.7" gradientUnits="userSpaceOnUse"><stop stop-color="#0e2829"/><stop offset=".34" stop-color="#0a3234"/><stop offset=".7" stop-color="#0e2829"/><stop offset="1" stop-color="#0a3234"/></linearGradient><linearGradient id="k" x1="76.15" x2="125.32" y1="44.042" y2="-18.7" gradientUnits="userSpaceOnUse"><stop stop-color="#0e2829"/><stop offset=".34" stop-color="#0a3234"/><stop offset=".7" stop-color="#0e2829"/><stop offset="1" stop-color="#0a3234"/></linearGradient><linearGradient id="l" x1="76.15" x2="125.32" y1="44.042" y2="-18.7" gradientUnits="userSpaceOnUse"><stop stop-color="#0e2829"/><stop offset=".34" stop-color="#0a3234"/><stop offset=".7" stop-color="#0e2829"/><stop offset="1" stop-color="#0a3234"/></linearGradient><linearGradient id="m" x1="76.15" x2="125.32" y1="44.042" y2="-18.7" gradientUnits="userSpaceOnUse"><stop stop-color="#0e2829"/><stop offset=".34" stop-color="#0a3234"/><stop offset=".7" stop-color="#0e2829"/><stop offset="1" stop-color="#0a3234"/></linearGradient></defs></svg>