<svg xmlns="http://www.w3.org/2000/svg" width="34" height="36" fill="none"><path fill="#00D0F4" fill-rule="evenodd" d="M34 0v27.474h-7.914V10.337c-1.093.834-2.166 1.527-3.194 2.062l-.225.114V5.472c.631-.349 1.14-.677 1.594-1.061C25.621 3.26 26.7 1.82 27.468.13l.06-.13H34ZM0 27.474l12.86-15.328c1.491-1.746.275-4.385-1.96-4.385-1.49 0-2.666 1.164-2.666 2.639H.392C.902 4.579 5.176 0 10.901 0c6.94 0 10.508 4.618 10.508 10.012 0 2.755-2.745 7.411-7.372 9.7h7.685v7.762H0Z" clip-rule="evenodd"/><path fill="#fff" fill-rule="evenodd" d="M.281 34.49c0-.683.577-1.26 1.26-1.26.682 0 1.259.577 1.259 1.26 0 .681-.577 1.258-1.26 1.258-.682 0-1.259-.576-1.259-1.259ZM3.555 32.847c0-1.9 1.436-3.14 3.298-3.14 1.339 0 2.166.62 2.495 1.129l-1.412 1.353c-.182-.286-.523-.51-.985-.51-.621 0-1.157.398-1.157 1.168 0 .77.536 1.179 1.157 1.179.462 0 .803-.248.985-.521l1.412 1.365C9.019 35.367 8.192 36 6.853 36c-1.862 0-3.298-1.242-3.298-3.153ZM13.917 32.847c0-.658-.374-1.167-1.05-1.167-.662 0-1.036.509-1.036 1.167 0 .67.374 1.179 1.037 1.179.675 0 1.049-.509 1.049-1.18Zm-4.317 0c0-1.676 1.206-3.14 3.268-3.14 2.074 0 3.28 1.464 3.28 3.14 0 1.675-1.206 3.153-3.28 3.153-2.062 0-3.268-1.477-3.268-3.153ZM16.652 34.49c0-.683.576-1.26 1.259-1.26.682 0 1.26.577 1.26 1.26 0 .681-.578 1.258-1.26 1.258-.683 0-1.26-.576-1.26-1.259ZM24.324 35.853v-.659c-.335.379-.968.806-1.983.806-1.338 0-1.912-.818-1.912-1.831v-4.211h2.15v3.271c0 .598.311.83.837.83.478 0 .729-.256.908-.464v-3.637h2.15v5.895h-2.15ZM31.85 32.595l2.014-2.637h-2.632l-1.347 2.062v-2.062H27.7v5.79h2.184v-1.307l.424-.563 1.007 1.87h2.682l-2.148-3.153Z" clip-rule="evenodd"/></svg>