<?xml version="1.0" encoding="UTF-8"?>
<!DOCTYPE svg PUBLIC "-//W3C//DTD SVG 1.1//EN" "http://www.w3.org/Graphics/SVG/1.1/DTD/svg11.dtd">
<!-- Creator: CorelDRAW 2018 (64-Bit) -->
<svg xmlns="http://www.w3.org/2000/svg" xml:space="preserve" width="14.1869mm" height="2.2806mm" version="1.1" style="shape-rendering:geometricPrecision; text-rendering:geometricPrecision; image-rendering:optimizeQuality; fill-rule:evenodd; clip-rule:evenodd"
viewBox="0 0 189.71 30.5"
 xmlns:xlink="http://www.w3.org/1999/xlink">
 <defs>
  <style type="text/css">
   <![CDATA[
    .fil1 {fill:#01FE6D}
    .fil0 {fill:#F1009A}
   ]]>
  </style>
 </defs>
 <g id="Слой_x0020_1">
  <metadata id="CorelCorpID_0Corel-Layer"/>
  <path class="fil0" d="M50.22 1.94c8.23,0 13.88,6.38 12.63,14.26 -1.25,7.87 -8.94,14.26 -17.16,14.26 -8.23,0 -13.88,-6.38 -12.63,-14.26 1.25,-7.87 8.94,-14.26 17.16,-14.26zm-1.37 5.98c4.38,0 7.52,3.71 7.02,8.28 -0.5,4.57 -4.45,8.28 -8.83,8.28 -4.38,0 -7.52,-3.71 -7.02,-8.28 0.5,-4.57 4.45,-8.28 8.83,-8.28z"/>
  <path class="fil0" d="M95.31 20.22c-2.68,5.95 -9.15,10.23 -15.92,10.23 -8.23,0 -13.88,-6.38 -12.63,-14.26 1.25,-7.87 8.94,-14.26 17.16,-14.26 6.69,0 11.68,4.23 12.64,10.04 0.01,0.07 -7.58,0.14 -7.68,-0.13 -0.88,-2.47 -3.47,-3.93 -6.32,-3.93 -4.38,0 -8.33,3.71 -8.83,8.28 -0.5,4.57 2.65,8.28 7.02,8.28 3.14,0 5.79,-1.54 7.37,-4.31 0.04,-0.07 0.16,-0.19 0.36,-0.18l6.49 0.08c0.24,0 0.36,0.11 0.34,0.16zm-91.38 -18.1l16.88 -0.06 0.04 0.01c4.54,0.07 7.49,2.35 8.89,5.4 0.6,1.31 0.9,2.76 0.88,4.22 -0.01,1.44 -0.32,2.89 -0.91,4.22 -1.1,2.47 -3.14,4.61 -6.09,5.69l3.8 8.79 -6.33 -0.04 -3.82 -8.04c-2.62,-0.01 -5.25,-0.04 -7.87,-0.04 -0.81,-0.03 -1.44,0.08 -1.77,0.36 -0.26,0.22 -0.44,0.66 -0.51,1.37l0 0.06 -0.74 6.39 -6.37 0.03 1.01 -7.12 0.01 0c0.25,-2.43 1.21,-4.22 2.69,-5.45 1.58,-1.31 3.61,-1.85 5.88,-1.78l10.03 0.05c2.32,-0.1 3.81,-1.29 4.46,-2.76 0.26,-0.59 0.4,-1.21 0.4,-1.79 0.01,-0.58 -0.1,-1.13 -0.33,-1.62 -0.47,-1.02 -1.57,-1.78 -3.35,-1.82l0 0.01 -17.62 0 0.74 -6.09zm130.17 0.29l52.69 0 -7.49 6.81 -46.17 0 0.97 -6.81zm32.54 10.99l7.12 0 -2.97 16.85 -7.12 0 2.97 -16.85zm-13.44 10.77l-0.94 6.23 -22.51 0c0.51,-3.42 1.14,-8.13 2.21,-11.93 1.14,-4.05 5.21,-5.39 8.27,-5.53l12.45 0 -0.91 6.02 -12.45 0 -0.78 5.21 14.66 0zm-42.76 -4.52l-4.19 3.76 -1.2 7 -7.05 0 4.78 -27.98 7.05 0 -1.99 11.63 12.91 -11.63 8.79 0 -13.64 12.39 9.47 15.59 -8.42 0 -6.51 -10.75z"/>
  <g id="_2515450942240">
   <path class="fil1" d="M53.15 0c8.23,0 13.88,6.38 12.63,14.26 -1.25,7.87 -8.94,14.26 -17.16,14.26 -8.23,0 -13.88,-6.38 -12.62,-14.26 1.25,-7.87 8.94,-14.26 17.16,-14.26zm-1.36 5.98c4.38,0 7.52,3.7 7.02,8.27 -0.5,4.57 -4.45,8.28 -8.83,8.28 -4.38,0 -7.52,-3.71 -7.02,-8.28 0.5,-4.57 4.45,-8.27 8.83,-8.27z"/>
   <path class="fil1" d="M98.24 18.28c-2.68,5.95 -9.15,10.23 -15.92,10.23 -8.23,0 -13.88,-6.38 -12.63,-14.26 1.25,-7.87 8.94,-14.26 17.16,-14.26 6.69,0 11.68,4.23 12.63,10.05 0.01,0.07 -7.58,0.14 -7.68,-0.13 -0.89,-2.47 -3.47,-3.93 -6.32,-3.93 -4.38,0 -8.33,3.7 -8.83,8.28 -0.5,4.57 2.64,8.27 7.02,8.27 3.14,0 5.79,-1.54 7.37,-4.31 0.04,-0.07 0.16,-0.19 0.36,-0.18l6.49 0.08c0.24,0 0.36,0.11 0.34,0.16zm-91.38 -18.11l16.88 -0.06 0.04 0.01c4.54,0.07 7.49,2.35 8.89,5.4 0.6,1.31 0.9,2.76 0.88,4.22 -0.01,1.44 -0.32,2.89 -0.91,4.22 -1.1,2.47 -3.14,4.61 -6.09,5.69l3.8 8.79 -6.33 -0.04 -3.82 -8.04c-2.62,-0.01 -5.25,-0.04 -7.87,-0.04 -0.81,-0.03 -1.43,0.08 -1.77,0.36 -0.26,0.22 -0.44,0.66 -0.51,1.37l0 0.06 -0.74 6.39 -6.37 0.04 1.01 -7.12 0.01 0c0.25,-2.43 1.21,-4.22 2.69,-5.44 1.58,-1.31 3.61,-1.85 5.88,-1.78l10.03 0.05c2.32,-0.1 3.81,-1.29 4.46,-2.76 0.26,-0.59 0.4,-1.21 0.4,-1.8 0.01,-0.58 -0.1,-1.13 -0.33,-1.62 -0.47,-1.02 -1.57,-1.79 -3.35,-1.82l0 0.01 -17.62 0 0.74 -6.09zm130.17 0.29l52.69 0 -7.49 6.81 -46.17 0 0.97 -6.81zm32.53 10.99l7.12 0 -2.97 16.85 -7.12 0 2.97 -16.85zm-13.44 10.77l-0.94 6.23 -22.5 0c0.51,-3.42 1.14,-8.13 2.21,-11.93 1.14,-4.05 5.21,-5.39 8.27,-5.53l12.45 0 -0.91 6.02 -12.45 0 -0.78 5.21 14.66 0zm-42.76 -4.52l-4.19 3.75 -1.2 7 -7.05 0 4.78 -27.98 7.05 0 -1.99 11.63 12.91 -11.63 8.79 0 -13.65 12.39 9.47 15.59 -8.42 0 -6.51 -10.75z"/>
  </g>
 </g>
</svg>
