<?xml version="1.0" encoding="UTF-8"?>
<svg id="Layer_2" data-name="Layer 2" xmlns="http://www.w3.org/2000/svg" viewBox="0 0 1416.26 433.36">
  <defs>
    <style>
      .cls-1 {
        fill: #fff;
      }
    </style>
  </defs>
  <g id="Layer_1-2" data-name="Layer 1">
    <g>
      <path class="cls-1" d="M845.63,91.17c4.23,0,5.64,2.82,5.64,7.52,0,31.02-44.17,100.58-95.87,153.22,12.21-63.92,65.79-160.74,90.23-160.74M736.59,38.54c4.23,0,5.65,2.34,5.65,7.05,0,31.95-65.33,133-121.26,193.16,8.46-85.07,87.88-200.22,115.61-200.22M401.02,340.27c23.02,0,45.12-15.51,65.33-39.48,1.41,21.62,15.5,37.13,39.01,37.13,21.62,0,42.77-10.8,70.5-36.65,8.46,23.02,29.14,39.01,57.81,39.01s49.34-9.41,75.66-31.96c7.52,20.21,23.5,31.96,47.01,31.96,26.79,0,51.23-14.57,74.73-42.78-.47,20.21,9.4,34.78,27.25,34.78,20.68,0,44.18-15.51,66.27-39.02l-60.62,131.13c-2.35,5.17-.48,9.4,4.7,8.93l36.18-3.29c6.58-.47,8.46-2.81,11.28-8.93l121.73-260.84c2.35-5.17.47-9.4-5.17-8.93l-36.19,3.28c-6.11.48-8.46,2.82-11.27,8.94l-14.57,31.48c-21.15,46.53-63.92,95.88-81.78,95.88-8.46,0-8.46-11.27-1.41-25.85l52.17-104.81c2.81-5.17.47-9.4-4.71-8.93l-36.18,3.28c-6.58.48-8.46,2.82-11.28,8.94l-23.97,47.93c-31.95,62.98-62.98,95.88-88.36,95.88-12.69,0-20.21-8.46-22.09-23.97,74.26-67.21,126.42-143.81,126.42-186.11,0-21.62-10.8-34.31-28.2-34.31-40.41,0-93.06,63.92-123.13,130.19-15.03,33.37-23.49,66.27-22.56,92.12-20.21,16.92-34.78,22.56-50.29,22.56-19.74,0-31.02-14.57-34.31-38.07,85.07-80.37,150.87-176.71,150.87-227.47,0-19.74-10.34-32.9-28.2-32.9-44.18,0-111.39,74.73-149.46,156.03-19.73,41.83-26.79,79.9-23.5,111.38-22.09,20.21-34.78,28.2-46.53,28.2-12.68,0-15.03-11.27-6.11-29.6l24.91-54.53c2.35-4.7,0-9.4-4.7-8.93l-36.66,4.23c-6.11.47-7.99,2.35-11.28,8.93l-3.75,7.99c-17.39,36.66-45.59,69.09-63.46,69.09-6.11,0-8.93-3.76-8.93-10.81,0-25.38,39.95-114.2,91.65-123.13,2.82,13.16,15.04,24.91,29.14,24.91s23.97-9.88,23.97-21.15c0-14.57-14.57-26.79-39.95-26.79-79.9,0-156.97,92.12-156.97,151.8,0,27.73,14.57,43.24,39.01,43.24M69.68,365.65c67.68,0,101.52-73.79,130.65-147.57,26.33-66.27,51.7-129.25,100.11-146.64,4.7-1.88,3.76-10.34-1.41-10.81-87.89-3.76-129.25,94.94-160.74,172.95-28.19,69.09-46.53,101.52-72.38,101.52-20.21,0-31.02-15.5-31.02-42.77,0-86.47,115.14-266.01,271.65-266.01,52.16,0,83.18,19.27,83.18,50.76,0,44.18-41.82,77.54-121.73,96.35-5.64,1.41-7.51,4.23-7.51,7.52,0,3.76,2.35,6.11,7.51,8.93,22.56,11.28,31.96,29.14,31.96,50.29,0,34.78-25.38,76.61-55.46,76.61-3.76,0-7.05-.94-8.94-1.88,2.82-5.17,4.24-11.28,4.24-17.87,0-15.03-11.75-27.72-24.91-27.72s-23.5,10.8-23.5,24.44c0,27.25,25.38,46.53,62.04,46.53,57.81,0,99.16-42.3,99.16-91.18,0-28.67-16.45-51.7-46.53-64.85,86.48-12.22,138.65-50.76,138.65-105.75C444.73,31.95,397.26,0,323.47,0,137.36,0,1.07,153.68,1.07,282.46c0,51.7,25.38,83.19,68.62,83.19"/>
      <path class="cls-1" d="M1173.23,241.45c19.04,4.17,29.47,19.04,29.47,41.2,0,28.68-16.69,47.46-52.94,47.46h-48.76v-174.19h48.24c33.38,0,49.28,17.47,49.28,45.63,0,21.9-9.65,35.46-25.29,39.38v.52ZM1136.46,229.19h8.87c13.3,0,17.73-7.3,17.73-22.17s-4.43-21.64-17.73-21.64h-8.87v43.81ZM1136.46,300.64h10.95c13.82,0,18.51-7.56,18.51-22.43s-4.96-22.43-18.51-22.43h-10.95v44.85Z"/>
      <path class="cls-1" d="M1302.05,330.11h-85.01v-174.19h85.01v31.03h-48.24v40.16h40.68v29.47h-40.68v42.51h48.24v31.03Z"/>
      <path class="cls-1" d="M1345.85,330.11v-143.16h-32.86v-31.03h103.26v31.03h-32.86v143.16h-37.55Z"/>
      <path class="cls-1" d="M844.56,91.17c4.23,0,5.64,2.82,5.64,7.52,0,31.02-44.17,100.58-95.87,153.22,12.21-63.92,65.79-160.74,90.23-160.74M735.53,38.54c4.23,0,5.65,2.34,5.65,7.05,0,31.95-65.33,133-121.26,193.16,8.46-85.07,87.88-200.22,115.61-200.22M399.96,340.27c23.02,0,45.12-15.51,65.33-39.48,1.41,21.62,15.5,37.13,39.01,37.13,21.62,0,42.77-10.8,70.5-36.65,8.46,23.02,29.14,39.01,57.81,39.01s49.34-9.41,75.66-31.96c7.52,20.21,23.5,31.96,47.01,31.96,26.79,0,51.23-14.57,74.73-42.78-.47,20.21,9.4,34.78,27.25,34.78,20.68,0,44.18-15.51,66.27-39.02l-60.62,131.13c-2.35,5.17-.48,9.4,4.7,8.93l36.18-3.29c6.58-.47,8.46-2.81,11.28-8.93l121.73-260.84c2.35-5.17.47-9.4-5.17-8.93l-36.19,3.28c-6.11.48-8.46,2.82-11.27,8.94l-14.57,31.48c-21.15,46.53-63.92,95.88-81.78,95.88-8.46,0-8.46-11.27-1.41-25.85l52.17-104.81c2.81-5.17.47-9.4-4.71-8.93l-36.18,3.28c-6.58.48-8.46,2.82-11.28,8.94l-23.97,47.93c-31.95,62.98-62.98,95.88-88.36,95.88-12.69,0-20.21-8.46-22.09-23.97,74.26-67.21,126.42-143.81,126.42-186.11,0-21.62-10.8-34.31-28.2-34.31-40.41,0-93.06,63.92-123.13,130.19-15.03,33.37-23.49,66.27-22.56,92.12-20.21,16.92-34.78,22.56-50.29,22.56-19.74,0-31.02-14.57-34.31-38.07,85.07-80.37,150.87-176.71,150.87-227.47,0-19.74-10.34-32.9-28.2-32.9-44.18,0-111.39,74.73-149.46,156.03-19.73,41.83-26.79,79.9-23.5,111.38-22.09,20.21-34.78,28.2-46.53,28.2-12.68,0-15.03-11.27-6.11-29.6l24.91-54.53c2.35-4.7,0-9.4-4.7-8.93l-36.66,4.23c-6.11.47-7.99,2.35-11.28,8.93l-3.75,7.99c-17.39,36.66-45.59,69.09-63.46,69.09-6.11,0-8.93-3.76-8.93-10.81,0-25.38,39.95-114.2,91.65-123.13,2.82,13.16,15.04,24.91,29.14,24.91s23.97-9.88,23.97-21.15c0-14.57-14.57-26.79-39.95-26.79-79.9,0-156.97,92.12-156.97,151.8,0,27.73,14.57,43.24,39.01,43.24M68.62,365.65c67.68,0,101.52-73.79,130.65-147.57,26.33-66.27,51.7-129.25,100.11-146.64,4.7-1.88,3.76-10.34-1.41-10.81-87.89-3.76-129.25,94.94-160.74,172.95-28.19,69.09-46.53,101.52-72.38,101.52-20.21,0-31.02-15.5-31.02-42.77,0-86.47,115.14-266.01,271.65-266.01,52.16,0,83.18,19.27,83.18,50.76,0,44.18-41.82,77.54-121.73,96.35-5.64,1.41-7.51,4.23-7.51,7.52,0,3.76,2.35,6.11,7.51,8.93,22.56,11.28,31.96,29.14,31.96,50.29,0,34.78-25.38,76.61-55.46,76.61-3.76,0-7.05-.94-8.94-1.88,2.82-5.17,4.24-11.28,4.24-17.87,0-15.03-11.75-27.72-24.91-27.72s-23.5,10.8-23.5,24.44c0,27.25,25.38,46.53,62.04,46.53,57.81,0,99.16-42.3,99.16-91.18,0-28.67-16.45-51.7-46.53-64.85,86.48-12.22,138.65-50.76,138.65-105.75C443.66,31.95,396.19,0,322.4,0,136.29,0,0,153.68,0,282.46c0,51.7,25.38,83.19,68.62,83.19"/>
    </g>
  </g>
</svg>