<?xml version="1.0" encoding="UTF-8"?> <svg xmlns="http://www.w3.org/2000/svg" width="125" height="51" viewBox="0 0 125 51" fill="none"><g clip-path="url(#clip0_860_4950)"><path d="M44.2541 22.2595H42.1803V40.3411H44.2541V22.2595Z" fill="white"></path><path d="M87.3428 22.2861L85.4991 23.6635V25.3919H82.5705V27.2272H85.4991V36.2623C85.4991 38.2845 85.9361 40.3486 89.1636 40.3486H90.8004V38.5134H89.1636C87.6457 38.5134 87.339 38.1357 87.339 36.2623V27.2272H90.8004V25.3919H87.339V22.2861H87.3428Z" fill="white"></path><path d="M53.4575 38.5097C50.6555 38.5097 48.3786 35.98 48.3786 32.8666C48.3786 29.7531 50.6555 27.2273 53.4575 27.2273C56.2596 27.2273 58.5365 29.757 58.5365 32.8666C58.5365 35.9762 56.2558 38.5097 53.4575 38.5097ZM53.4575 25.3882C49.6359 25.3882 46.531 28.7459 46.531 32.8666C46.531 36.9873 49.6397 40.3487 53.4575 40.3487C55.4661 40.3487 57.2754 39.4139 58.5403 37.9297V40.3526C58.5403 40.3526 58.5173 42.2985 57.2064 43.611C56.3401 44.4809 55.0751 44.9197 53.4499 44.9197V46.7549C55.5849 46.7549 57.2907 46.133 58.5173 44.9044C60.3841 43.031 60.3879 40.4479 60.3879 40.3449V25.3806L57.9577 27.1891C56.7464 26.0674 55.1748 25.3844 53.4614 25.3844" fill="white"></path><path d="M104.063 38.5097C101.269 38.5097 98.9919 35.9838 98.9919 32.878C98.9919 29.7722 101.265 27.2464 104.063 27.2464C106.861 27.2464 109.134 29.7722 109.134 32.878C109.134 35.9838 106.861 38.5097 104.063 38.5097ZM104.063 25.4111C100.249 25.4111 97.1481 28.7611 97.1481 32.878C97.1481 36.9949 100.253 40.3449 104.063 40.3449C107.873 40.3449 110.978 36.9949 110.978 32.878C110.978 28.7611 107.877 25.4111 104.063 25.4111Z" fill="white"></path><path d="M80.2936 25.3921H78.4499V40.3412H80.2936V25.3921Z" fill="white"></path><path d="M80.2936 20.5959H78.4499V22.1297H80.2936V20.5959Z" fill="white"></path><path d="M94.9402 25.3921H93.1003V40.3412H94.9402V25.3921Z" fill="white"></path><path d="M94.9402 20.5959H93.1003V22.1297H94.9402V20.5959Z" fill="white"></path><path d="M69.2081 25.3921C67.556 25.3921 66.199 25.9111 65.2024 26.8458V25.3921H63.3586V40.3488H65.2024V31.7487C65.2139 30.0356 65.7505 27.2236 69.2081 27.2236C72.6656 27.2236 73.2138 30.0852 73.2138 31.7945V40.3412H75.0575V31.7945C75.0575 27.8455 72.8151 25.3921 69.2081 25.3921Z" fill="white"></path><path d="M119.131 25.3921C117.483 25.3921 116.122 25.9111 115.126 26.8458V25.3921H113.286V31.7678C113.286 31.7678 113.286 31.7869 113.286 31.7945V40.3488H115.126V31.7487C115.133 30.0356 115.674 27.2236 119.131 27.2236C122.589 27.2236 123.137 30.0852 123.137 31.7945V40.3412H124.977V31.7945C124.977 27.8455 122.735 25.3921 119.128 25.3921" fill="white"></path><path d="M92.6863 44.0002L92.1037 44.4466C91.7817 44.0307 91.3945 43.714 90.9422 43.4965C90.4899 43.2828 89.9954 43.1722 89.4549 43.1722C88.8646 43.1722 88.3165 43.3134 87.8143 43.5957C87.3122 43.8781 86.9212 44.2558 86.6452 44.7327C86.3692 45.2097 86.2312 45.7438 86.2312 46.3391C86.2312 47.2357 86.5417 47.9873 87.1589 48.5902C87.776 49.193 88.558 49.4906 89.5009 49.4906C90.5359 49.4906 91.406 49.0862 92.1037 48.2773L92.6863 48.7161C92.3183 49.1854 91.8583 49.5441 91.3064 49.8035C90.7544 50.0591 90.1372 50.1851 89.4588 50.1851C88.1632 50.1851 87.1435 49.7577 86.396 48.8992C85.7674 48.1743 85.4531 47.3005 85.4531 46.2742C85.4531 45.1944 85.8326 44.2901 86.5915 43.5499C87.3505 42.8135 88.305 42.4473 89.4473 42.4473C90.1372 42.4473 90.762 42.5846 91.3179 42.8555C91.8737 43.1264 92.3298 43.508 92.6863 44.0002Z" fill="white"></path><path d="M96.8453 44.1987L95.5765 46.8657H98.1064L96.8453 44.1987ZM96.9373 42.6343L100.391 50.002H99.5899L98.4246 47.5792H95.2354L94.0816 50.002H93.2574L96.7533 42.6343H96.9373Z" fill="white"></path><path d="M100.77 48.6284L101.399 48.2507C101.844 49.0596 102.354 49.4678 102.932 49.4678C103.182 49.4678 103.412 49.4106 103.63 49.2961C103.849 49.1817 104.013 49.0253 104.128 48.8345C104.243 48.6399 104.301 48.4339 104.301 48.2164C104.301 47.9684 104.217 47.728 104.052 47.4914C103.818 47.1633 103.396 46.7703 102.783 46.3086C102.166 45.847 101.782 45.5112 101.629 45.3013C101.368 44.9541 101.238 44.5764 101.238 44.172C101.238 43.8515 101.315 43.5577 101.472 43.2944C101.625 43.0311 101.844 42.8213 102.124 42.6687C102.403 42.516 102.706 42.4397 103.036 42.4397C103.385 42.4397 103.711 42.5275 104.013 42.6992C104.316 42.8709 104.638 43.1876 104.979 43.6492L104.374 44.1071C104.098 43.7408 103.86 43.4966 103.661 43.3821C103.465 43.2639 103.251 43.2066 103.021 43.2066C102.722 43.2066 102.48 43.2982 102.288 43.4775C102.101 43.6607 102.005 43.882 102.005 44.1414C102.005 44.3017 102.039 44.4581 102.104 44.6069C102.173 44.7557 102.292 44.9198 102.472 45.0991C102.568 45.1907 102.89 45.4387 103.431 45.8355C104.071 46.3048 104.512 46.7245 104.749 47.0908C104.987 47.4571 105.106 47.8272 105.106 48.1973C105.106 48.7315 104.903 49.1969 104.492 49.5899C104.086 49.9829 103.588 50.1813 103.005 50.1813C102.557 50.1813 102.147 50.0631 101.782 49.8227C101.418 49.5861 101.077 49.1855 100.77 48.6246" fill="white"></path><path d="M107.567 42.6304H106.827V49.9981H107.567V42.6304Z" fill="white"></path><path d="M109.644 50.0019V42.6304H109.805L114.735 48.2811V42.6304H115.463V50.0019H115.298L110.411 44.4199V50.0019H109.644Z" fill="white"></path><path d="M121.086 43.1646C120.538 43.1646 120.021 43.3057 119.53 43.5919C119.039 43.8742 118.656 44.2558 118.38 44.7404C118.104 45.2211 117.966 45.7591 117.966 46.3505C117.966 47.2242 118.269 47.9645 118.882 48.5711C119.492 49.174 120.228 49.4754 121.086 49.4754C121.661 49.4754 122.194 49.338 122.681 49.0595C123.168 48.781 123.551 48.4032 123.827 47.9225C124.099 47.4417 124.237 46.9076 124.237 46.3162C124.237 45.7248 124.099 45.202 123.827 44.7289C123.555 44.2558 123.168 43.8781 122.669 43.5919C122.171 43.3096 121.646 43.1646 121.086 43.1646ZM121.056 42.4473C122.175 42.4473 123.114 42.8212 123.869 43.5652C124.624 44.3092 125 45.2287 125 46.3162C125 47.4036 124.624 48.3078 123.869 49.0595C123.114 49.8111 122.198 50.1851 121.113 50.1851C120.028 50.1851 119.089 49.8111 118.334 49.0633C117.579 48.3155 117.203 47.4112 117.203 46.3505C117.203 45.6408 117.376 44.9846 117.721 44.3817C118.066 43.775 118.533 43.3057 119.128 42.9623C119.722 42.6228 120.366 42.4473 121.056 42.4473Z" fill="white"></path><path d="M4.47714 27.8567C3.47668 27.8567 2.66788 28.7725 2.66788 29.9018C2.66788 31.0312 3.47668 31.9469 4.47714 31.9469C5.4776 31.9469 6.28641 31.0312 6.28641 29.9018C6.28641 28.7725 5.4776 27.8567 4.47714 27.8567Z" fill="#EF712E"></path><path d="M10.8556 38.521C9.85511 38.521 9.0463 39.4367 9.0463 40.5623C9.0463 41.6879 9.85511 42.6074 10.8556 42.6074C11.856 42.6074 12.6648 41.6917 12.6648 40.5623C12.6648 39.4329 11.856 38.521 10.8556 38.521Z" fill="#EF712E"></path><path d="M28.1585 31.7219C27.1581 31.7219 26.3493 30.8062 26.3493 29.6768C26.3493 28.5475 27.1581 27.6355 28.1585 27.6355C29.159 27.6355 29.9678 28.5513 29.9678 29.6768C29.9678 30.8024 29.159 31.7219 28.1585 31.7219ZM24.6857 38.2502C23.6852 38.2502 22.8764 37.3345 22.8764 36.2089C22.8764 35.0834 23.6852 34.1638 24.6857 34.1638C25.6861 34.1638 26.4949 35.0796 26.4949 36.2089C26.4949 37.3383 25.6861 38.2502 24.6857 38.2502ZM21.209 44.7785C20.2124 44.7785 19.3997 43.8628 19.3997 42.7372C19.3997 41.6117 20.2085 40.6921 21.209 40.6921C22.2094 40.6921 23.0182 41.6078 23.0182 42.7372C23.0182 43.8666 22.2094 44.7785 21.209 44.7785ZM33.0305 24.7625C33.0305 22.2061 32.6204 21.1645 30.0828 19.7032C30.0675 19.6955 30.0521 19.6879 30.0368 19.6764C30.0368 19.6764 30.0291 19.6764 30.0291 19.6726L29.9295 19.6154C23.2252 15.7503 17.0078 11.332 22.2669 0C22.2669 0 16.8698 2.99515 16.5478 12.0913C16.5478 17.3948 17.6096 18.3983 17.5636 20.0275C17.5368 20.947 16.7433 21.8246 15.5665 21.8246C14.5086 21.8246 13.4583 21.1759 13.4583 19.955C13.4583 18.2342 14.4434 17.9595 14.6312 12.8353C14.7117 10.6261 14.1751 8.26052 12.1933 6.10477C13.6461 10.6299 12.1818 14.1783 9.40279 16.1929C10.6102 13.7319 9.85511 11.145 8.57482 9.86303C9.23796 15.0673 4.86047 17.4253 4.86047 17.4253C4.86047 17.4253 4.86047 17.4253 4.86047 17.4329L1.00813 19.6612C0.367985 20.0313 0 20.5006 0 20.947C0 21.3934 0.367985 21.8627 1.01196 22.229L12.569 28.868C13.3433 29.3144 14.4319 29.5662 15.5665 29.5662C16.7012 29.5662 17.8051 29.3067 18.5833 28.8565L28.8408 23.9765L19.3729 30.211C17.7438 31.1534 16.36 33.5381 16.3562 35.4153L16.3178 48.5978C16.3178 49.2083 16.4635 49.6967 16.7357 49.9676C16.9082 50.1393 17.1266 50.2232 17.4026 50.2232C17.7323 50.2232 18.1194 50.1011 18.5219 49.8646L29.9716 43.2409C31.6007 42.2946 32.9845 39.9138 32.9883 38.0366L33.0267 24.8541C33.0267 24.8197 33.019 24.7892 33.019 24.7549C33.019 24.7549 33.0216 24.7549 33.0267 24.7549" fill="url(#paint0_linear_860_4950)"></path></g><defs><linearGradient id="paint0_linear_860_4950" x1="0" y1="25.1116" x2="33.4821" y2="25.1116" gradientUnits="userSpaceOnUse"><stop stop-color="#E37D30"></stop><stop offset="1" stop-color="#D91424"></stop></linearGradient><clipPath id="clip0_860_4950"><rect width="125" height="51" fill="white"></rect></clipPath></defs></svg> 