<svg width="355" height="67" viewBox="0 0 355 67" fill="none" xmlns="http://www.w3.org/2000/svg">
<path d="M12.4288 24.6368C6.18177 23.0761 0.95774 11.6532 0.95774 11.6532C0.587704 11.6532 0.435336 11.6316 0 11.6532V43.3426C0.391803 43.3643 0.522403 43.3426 0.95774 43.3426C0.95774 43.3426 6.72594 31.5946 12.4288 30.3591C14.8014 29.8605 14.7797 25.222 12.4288 24.6368Z" fill="#00B394"/>
<path d="M38.0049 4.76071C35.2187 1.70449 31.1265 -0.181266 26.5773 0.0138117C19.0242 0.317266 12.886 6.47306 12.6248 14.0161C12.603 14.5146 12.6248 14.9915 12.6465 15.4683C13.1689 23.5316 21.7015 29.2105 29.124 24.507C32.7808 22.2094 33.325 21.1039 34.7181 13.1924C36.8512 25.2006 37.0036 25.374 49.0624 27.4765C37.0036 29.6007 36.8294 29.7524 34.7181 41.7605C33.325 33.849 32.7591 32.7653 29.124 30.446C21.6797 25.7424 13.1689 31.4431 12.6465 39.4846C12.6248 39.9615 12.603 40.46 12.6248 40.9369C12.886 48.4799 19.0024 54.6357 26.5773 54.9391C31.1048 55.1342 35.2187 53.2485 38.0049 50.1706L60.8382 27.4331L38.0049 4.76071Z" fill="#00B394"/>
<path d="M34.2824 31.3131C36.3981 31.3131 38.1133 29.6051 38.1133 27.4982C38.1133 25.3913 36.3981 23.6834 34.2824 23.6834C32.1666 23.6834 30.4514 25.3913 30.4514 27.4982C30.4514 29.6051 32.1666 31.3131 34.2824 31.3131Z" fill="#00B394"/>
<path d="M65.2578 52.2733V4.63086H78.1655V26.2845L93.2934 4.63086H108.487L90.812 27.8668L110.032 52.2733H93.7506L78.1655 30.8797V52.2733H65.2578Z" fill="white"/>
<path d="M112.732 52.2726V19.3911H124.377V52.2726H112.732Z" fill="white"/>
<path d="M133.867 52.2735V19.392H144.533V26.068C146.035 23.4669 147.819 21.5162 149.887 20.2156C151.89 18.9802 154.328 18.3516 157.179 18.3516C159.334 18.3516 161.25 18.6767 162.926 19.327C164.58 20.0639 165.929 21.061 166.952 22.3182C167.888 23.5753 168.52 24.9192 168.824 26.3281C169.194 28.1271 169.39 30.5114 169.39 33.4593V52.2735H157.68V34.6731C157.68 32.007 157.266 30.0996 156.417 28.9508C155.568 27.7587 154.197 27.1518 152.282 27.1518C149.887 27.1518 148.124 28.0404 146.992 29.8178C145.882 31.5952 145.338 34.478 145.338 38.4663V52.2735H133.867Z" fill="white"/>
<path d="M212.989 19.3921V52.2086C212.989 57.1722 211.466 60.8353 208.44 63.2196C206.982 64.3901 205.066 65.2788 202.694 65.8857C200.321 66.4926 197.535 66.7961 194.335 66.7961C189.133 66.7961 185.084 65.8423 182.211 63.9349C179.338 62.0058 177.792 59.3181 177.596 55.8934H189.655C189.873 56.9338 190.461 57.7141 191.397 58.256C192.354 58.8412 193.639 59.123 195.228 59.123C197.709 59.123 199.45 58.5378 200.43 57.3456C201.366 56.1535 201.845 53.6175 201.845 49.7592V46.768C200.604 48.8489 199.037 50.3878 197.165 51.3632C195.228 52.382 192.964 52.9022 190.395 52.9022C186.042 52.9022 182.537 51.3199 179.904 48.1769C178.619 46.638 177.64 44.8173 176.965 42.7148C176.29 40.6122 175.942 38.2713 175.942 35.6269C175.942 30.3815 177.335 26.1765 180.1 23.0335C181.471 21.4729 183.082 20.3024 184.954 19.5438C186.826 18.7635 188.893 18.395 191.222 18.395C193.682 18.395 195.815 18.9152 197.622 19.934C199.407 20.8877 200.952 22.4917 202.258 24.7459V19.3921H212.989ZM202.737 35.757C202.737 33.221 202.062 31.2268 200.735 29.7746C199.298 28.344 197.404 27.6287 195.053 27.6287C192.703 27.6287 190.809 28.344 189.372 29.7746C187.979 31.2268 187.283 33.221 187.283 35.757C187.283 38.3147 187.979 40.2871 189.372 41.6743C190.787 43.1483 192.681 43.8852 195.053 43.8852C197.382 43.8852 199.254 43.1483 200.669 41.6743C202.062 40.3088 202.737 38.3363 202.737 35.757Z" fill="white"/>
<path d="M221.762 52.2732V1.81299H233.211V19.5217C233.211 20.3671 233.168 21.4725 233.08 22.8164C233.015 23.9869 232.928 24.8756 232.819 25.4825C234.278 23.0331 235.997 21.2341 237.978 20.0853C239.981 18.9365 242.353 18.3513 245.074 18.3513C247.229 18.3513 249.144 18.6764 250.82 19.3267C252.475 20.0636 253.824 21.0607 254.847 22.3179C255.783 23.575 256.415 24.9189 256.719 26.3278C257.089 28.1269 257.285 30.5111 257.285 33.459V52.2732H245.575V34.6728C245.575 32.0067 245.161 30.0993 244.312 28.9505C243.463 27.7584 242.092 27.1515 240.176 27.1515C237.782 27.1515 236.019 28.0402 234.887 29.8175C233.777 31.5949 233.233 34.4777 233.233 38.466V52.2732H221.762Z" fill="white"/>
<path d="M265.207 52.2726V19.3911H276.853V52.2726H265.207Z" fill="white"/>
<path d="M286.648 52.2732V1.81299H298.359V52.2732H286.648Z" fill="white"/>
<path d="M307.544 52.2732V1.81299H319.254V52.2732H307.544Z" fill="white"/>
<path d="M325.066 49.5425L327.483 40.6989C329.18 42.1945 331.052 43.3217 333.098 44.0803C335.123 44.8823 337.169 45.2724 339.237 45.2724C340.717 45.2724 341.827 45.034 342.567 44.5355C343.329 44.0803 343.721 43.43 343.721 42.563C343.721 41.1108 342.175 40.027 339.106 39.3117C338.039 39.0733 337.234 38.8782 336.69 38.7048C333.142 37.6644 330.617 36.3856 329.137 34.89C327.526 33.351 326.721 31.3569 326.721 28.9076C326.721 25.743 327.94 23.1853 330.356 21.2562C332.685 19.3487 335.95 18.395 340.129 18.395C342.153 18.395 344.308 18.6334 346.594 19.1103C348.509 19.5005 350.751 20.2591 353.298 21.4079L350.882 29.4061C349.315 28.344 347.726 27.542 346.137 27.0218C344.635 26.4799 343.046 26.2198 341.392 26.2198C340.042 26.2198 339.019 26.4366 338.344 26.8267C337.691 27.2169 337.365 27.8021 337.365 28.6041C337.365 29.7312 338.91 30.7066 341.979 31.5303C342.98 31.8337 343.503 31.9855 343.525 31.9855C347.53 33.1126 350.338 34.4565 351.948 35.9954C353.516 37.6211 354.299 39.7236 354.299 42.3246C354.299 45.6843 352.993 48.3937 350.403 50.4529C347.747 52.5337 344.308 53.5741 340.107 53.5741C337.191 53.5741 334.491 53.249 332.054 52.577C329.616 51.9051 327.287 50.8864 325.066 49.5425Z" fill="white"/>
<path d="M118.555 2.78711L120.715 9.1144L127.043 11.2751L120.715 13.4358L118.555 19.7631L116.394 13.4358L110.067 11.2751L116.394 9.1144L118.555 2.78711Z" fill="white"/>
<path d="M271.03 2.78711L273.19 9.1144L279.518 11.2751L273.19 13.4358L271.03 19.7631L268.869 13.4358L262.542 11.2751L268.869 9.1144L271.03 2.78711Z" fill="white"/>
</svg>
