<svg xmlns="http://www.w3.org/2000/svg" viewBox="0 0 72 72" fill="none">
    <path d="M36.2853 53.0419C31.1069 53.0419 26.894 57.284 26.894 62.5209C26.894 67.7578 31.1069 72 36.2853 72C41.4637 72 45.6766 67.7578 45.6766 62.5209C45.6473 57.284 41.4637 53.0419 36.2853 53.0419Z" fill="#3AAA35"/>
    <path d="M54.1902 0H42.4291C42.3121 0 42.195 0.0585128 42.1073 0.117026C42.0195 0.204795 41.9902 0.32182 41.9902 0.438846V28.9638C41.9902 32.0943 39.4449 34.6396 36.3145 34.6396C33.1841 34.6396 30.6388 32.0943 30.6388 28.9638V5.55872V3.8911V0.438846C30.6388 0.204795 30.434 0 30.1999 0H18.4388C18.3218 0 18.2048 0.0585128 18.117 0.117026C18.0293 0.175538 18 0.32182 18 0.438846V28.9638C18 39.0573 26.221 47.2783 36.3145 47.2783C46.408 47.2783 54.629 39.0573 54.629 28.9638V3.8911V0.438846C54.629 0.204795 54.4242 0 54.1902 0Z" fill="white"/>
</svg>