<svg width="110" height="40" viewBox="0 0 110 40" fill="none" xmlns="http://www.w3.org/2000/svg">
<path d="M99.5412 21.7835C94.8494 21.7835 91.106 25.5607 91.106 30.2526C91.106 34.9106 94.8493 38.7217 99.5074 38.7217C104.199 38.7217 107.976 34.9106 107.976 30.2526C107.976 25.5607 104.199 21.7835 99.5412 21.7835ZM99.5836 34.6904C97.2038 34.6904 95.2897 32.7849 95.2897 30.3966C95.2897 28.0168 97.1953 26.1027 99.5836 26.1027C101.93 26.1027 103.877 28.0083 103.877 30.3966C103.869 32.7849 101.93 34.6904 99.5836 34.6904Z" fill="white"/>
<path d="M15.1042 32.9537C14.8416 32.7758 14.4944 32.8351 14.2742 33.0722C13.1139 34.3426 11.8097 34.91 10.353 34.91C7.32951 34.91 4.70408 32.1406 5.62722 28.9054C6.22852 26.8051 8.3458 25.3738 10.5308 25.5347C11.8181 25.6279 12.9615 26.2122 13.9862 27.4487C14.198 27.7113 14.5706 27.7875 14.8501 27.5927L17.1367 25.9751C17.4501 25.7549 17.5009 25.2806 17.2384 25.0012C15.0787 22.7314 12.6312 21.8083 10.1413 21.8083C5.07673 21.8083 1.26562 25.4754 1.26562 30.2097C1.26562 34.9778 5.29692 38.6026 10.3614 38.6026C12.8429 38.6026 15.2905 37.6879 17.4501 35.4266C17.7211 35.1472 17.6618 34.6644 17.34 34.4527L15.1042 32.9537Z" fill="white"/>
<path d="M62.2015 22.1474H59.2542C58.907 22.1474 58.619 22.4354 58.619 22.7826V37.6459C58.619 37.9931 58.907 38.2811 59.2542 38.2811H62.2015C62.5487 38.2811 62.8366 37.9931 62.8366 37.6459V22.7911C62.8366 22.4353 62.5487 22.1474 62.2015 22.1474Z" fill="white"/>
<path d="M77.0387 21.8596C72.4908 21.8596 69.3741 25.0863 69.3741 28.8297V37.6545C69.3741 38.0017 69.6621 38.2897 70.0093 38.2897H72.9566C73.3038 38.2897 73.5918 38.0017 73.5918 37.6545V29.4564C73.5918 26.8902 75.023 25.4251 77.0387 25.4251C79.0882 25.4251 80.5195 26.8902 80.5195 29.4564V37.6545C80.5195 38.0017 80.8074 38.2897 81.1547 38.2897H84.1019C84.4492 38.2897 84.7371 38.0017 84.7371 37.6545V28.8297C84.7371 25.0863 81.6205 21.8596 77.0387 21.8596Z" fill="white"/>
<path d="M25.0043 9.04596V17.2864C25.0043 17.6336 25.2922 17.9216 25.6395 17.9216H28.5528C28.9001 17.9216 29.188 17.6336 29.188 17.2864V8.46159C29.188 4.68437 26.2916 1.45764 21.7098 1.45764C19.33 1.45764 17.3482 2.33842 15.9931 3.69348C14.672 2.33842 12.6563 1.45764 10.2765 1.45764C5.72858 1.45764 2.68817 4.68437 2.68817 8.46159V17.2864C2.68817 17.6336 2.97612 17.9216 3.32335 17.9216H6.23673C6.58396 17.9216 6.87191 17.6336 6.87191 17.2864V9.04596C6.87191 6.47982 8.19309 5.01466 10.2087 5.01466C12.2583 5.01466 13.842 6.47982 13.842 9.04596V17.2864C13.842 17.6336 14.1299 17.9216 14.4772 17.9216H17.4244C17.7717 17.9216 18.0596 17.6336 18.0596 17.2864V9.04596C18.0596 6.47982 19.6349 5.01466 21.6505 5.01466C23.6831 5.01466 25.0043 6.47982 25.0043 9.04596Z" fill="white"/>
<path d="M77.7846 1.37245C75.4047 1.37245 73.423 2.25324 72.0679 3.60829C70.7467 2.25324 68.7311 1.37245 66.3513 1.37245C61.8034 1.37245 58.7629 4.59918 58.7629 8.3764V17.2012C58.7629 17.5485 59.0509 17.8364 59.3981 17.8364H62.3115C62.6587 17.8364 62.9467 17.5485 62.9467 17.2012V8.96077C62.9467 6.39463 64.2679 4.92948 66.2835 4.92948C68.333 4.92948 69.9168 6.39463 69.9168 8.96077V17.2012C69.9168 17.5485 70.2047 17.8364 70.5519 17.8364H73.4992C73.8464 17.8364 74.1344 17.5485 74.1344 17.2012V8.96077C74.1344 6.39463 75.7096 4.92948 77.7253 4.92948C79.7748 4.92948 81.096 6.39463 81.096 8.96077V17.2012C81.096 17.5485 81.3839 17.8364 81.7312 17.8364H84.6445C84.9918 17.8364 85.2797 17.5485 85.2797 17.2012V8.3764C85.2628 4.59918 82.3663 1.37245 77.7846 1.37245Z" fill="white"/>
<path d="M99.5074 18.2007C104.199 18.2007 107.976 14.3896 107.976 9.73156C107.976 5.03967 104.199 1.26245 99.5412 1.26245C94.8494 1.26245 91.106 5.03967 91.106 9.73156C91.1145 14.3896 94.8493 18.2007 99.5074 18.2007ZM99.5836 5.59017C101.93 5.59017 103.877 7.49572 103.877 9.884C103.877 12.2638 101.938 14.1778 99.5836 14.1778C97.2038 14.1778 95.2897 12.2723 95.2897 9.884C95.2897 7.49572 97.1953 5.59017 99.5836 5.59017Z" fill="white"/>
<path d="M36.6072 22.1471H33.6176C33.2704 22.1556 32.9909 22.4351 32.9909 22.7823V23.1295L32.9062 23.0702C31.7713 22.1895 30.357 21.8168 28.7817 21.7829C24.725 21.6983 21.2781 24.4084 20.5243 28.3973C19.4742 33.9277 23.226 38.6449 28.5277 38.6449C30.2299 38.6449 31.7544 38.2384 32.9147 37.2475L33.0332 37.1374V37.1628C33.0332 37.1628 33.0332 37.1628 33.0417 37.1628V37.671C33.0502 38.0098 33.3212 38.2808 33.6599 38.2808H36.6241C36.9714 38.2808 37.2593 37.9928 37.2593 37.6456V22.7908C37.2424 22.4351 36.9629 22.1471 36.6072 22.1471ZM28.8071 34.6899C26.4273 34.6899 24.5133 32.7843 24.5133 30.396C24.5133 28.0162 26.4188 26.1022 28.8071 26.1022C31.1531 26.1022 33.101 28.0077 33.101 30.396C33.101 32.7843 31.1531 34.6899 28.8071 34.6899Z" fill="white"/>
<path d="M44.374 18.1667C46.4743 18.1667 48.4815 17.523 50.0398 16.4136C50.3362 16.2019 50.3701 15.7615 50.1414 15.482L48.5069 13.5341C48.2782 13.2631 47.8802 13.2546 47.6007 13.4833C46.6352 14.2878 45.5766 14.6097 44.3824 14.6097C42.1127 14.6097 40.0547 13.1022 39.4704 10.9764H51.7506C52.0978 10.9764 52.3773 10.6969 52.3773 10.3497V9.92625H52.3858V9.77381C52.3858 5.03957 49.0828 1.37245 44.0267 1.37245C38.9622 1.37245 35.2612 5.03957 35.2612 9.77381C35.2443 14.4996 39.3094 18.1667 44.374 18.1667ZM44.0098 4.92948C45.9154 4.92948 47.3128 6.06434 47.931 7.52949H39.8261C40.5967 5.95424 42.1381 4.92948 44.0098 4.92948Z" fill="white"/>
<path d="M52.7326 29.9474C51.5977 29.1682 50.2511 28.7617 48.9638 28.3129C48.1 28.008 46.711 27.7285 46.4654 26.6698C46.44 26.5767 46.4315 26.4835 46.4315 26.4073C46.3977 25.2132 48.3371 25.3402 49.1247 25.5434C50.1241 25.7975 51.0218 26.3226 51.9195 26.8138C52.2159 26.9747 52.5886 26.8816 52.7664 26.5852L54.0029 24.5526C54.1808 24.2561 54.1046 23.8666 53.8166 23.6887C52.1651 22.647 50.0902 21.8679 48.1338 21.8679C45.2713 21.8679 42.197 23.333 42.197 26.6021C42.197 28.1096 43.027 29.2953 44.2635 30.0914C45.4661 30.8621 46.8465 31.277 48.1677 31.7852C49.0654 32.1324 51.1912 32.9455 50.2511 34.2666C50.0563 34.5461 49.7514 34.7324 49.4296 34.851C48.9723 35.0119 48.4641 35.0712 47.9899 35.0712C46.5247 35.0712 44.9833 34.3513 43.713 33.5637C43.3996 33.3689 43.0016 33.4705 42.8237 33.7839L41.655 35.8758C41.5449 36.1298 41.6126 36.4178 41.8328 36.5956C43.7384 37.739 45.8218 38.5774 48.0661 38.5774C51.1065 38.5774 54.7059 37.0699 54.7059 33.5891C54.6805 32.0731 53.969 30.8028 52.7326 29.9474Z" fill="white"/>
<path d="M99.5796 26.1186C97.1998 26.1186 95.2858 28.0242 95.2858 30.4124C95.2858 32.7923 97.1913 34.7063 99.5796 34.7063C101.926 34.7063 103.873 32.8007 103.873 30.4124C103.865 28.0242 101.926 26.1186 99.5796 26.1186ZM99.5796 33.4274C97.8858 33.4274 96.5561 32.0978 96.5561 30.404C96.5561 28.7102 97.8858 27.3805 99.5796 27.3805C101.248 27.3805 102.595 28.7356 102.595 30.404C102.595 32.0724 101.248 33.4274 99.5796 33.4274Z" fill="url(#paint0_linear_604_984)"/>
<path d="M99.5377 20.521C94.1852 20.521 89.8321 24.8911 89.8321 30.2605C89.8321 35.6299 94.1683 40 99.5038 40C104.873 40 109.243 35.6299 109.243 30.2605C109.243 24.8911 104.89 20.521 99.5377 20.521ZM99.5038 38.7296C94.8458 38.7296 91.1025 34.9185 91.1025 30.2605C91.1025 25.5686 94.8458 21.7914 99.5377 21.7914C104.196 21.7914 107.973 25.5686 107.973 30.2605C107.973 34.9185 104.196 38.7296 99.5038 38.7296Z" fill="url(#paint1_linear_604_984)"/>
<path d="M15.8203 31.9027C15.5069 31.691 15.1512 31.5809 14.7701 31.5809C14.2281 31.5809 13.7115 31.8181 13.3388 32.2161C12.4496 33.19 11.501 33.6389 10.3577 33.6389C9.18898 33.6389 8.07106 33.0884 7.37659 32.1653C6.74141 31.3268 6.55509 30.2936 6.85151 29.2519C7.25802 27.8291 8.6639 26.7959 10.1968 26.7959L10.4424 26.8043C11.4418 26.8806 12.2548 27.3379 13.0086 28.261C13.3812 28.7183 13.9317 28.9724 14.5076 28.9724C14.8972 28.9724 15.2698 28.8539 15.5832 28.6337L17.8698 27.0161C18.3272 26.6942 18.6151 26.1946 18.6744 25.6356C18.7252 25.0851 18.5473 24.5346 18.1662 24.1366C15.905 21.7567 13.2118 20.5541 10.146 20.5541C4.45475 20.5541 0 24.7972 0 30.2259C0 35.6461 4.55638 39.8891 10.3662 39.8891C13.4235 39.8891 16.1167 38.6865 18.378 36.3151C18.7591 35.9086 18.9454 35.3581 18.8861 34.7992C18.8268 34.2317 18.5219 33.7321 18.0561 33.4102L15.8203 31.9027ZM17.4379 35.4428C15.2783 37.7125 12.8307 38.6187 10.3493 38.6187C5.29319 38.6187 1.25342 34.9855 1.25342 30.2259C1.25342 25.4916 5.06453 21.8245 10.1291 21.8245C12.6105 21.8245 15.0665 22.7392 17.2262 25.0174C17.4887 25.2968 17.4379 25.7626 17.1245 25.9913L14.8379 27.6089C14.5584 27.8037 14.1858 27.7275 13.974 27.4649C12.9577 26.22 11.8144 25.6441 10.5186 25.5509C8.34207 25.39 6.21632 26.8213 5.61502 28.9216C4.69188 32.1568 7.31731 34.9262 10.3408 34.9262C11.7975 34.9262 13.1102 34.3588 14.262 33.0884C14.4737 32.8513 14.8294 32.792 15.092 32.9698L17.3278 34.4604C17.6496 34.6806 17.7089 35.1549 17.4379 35.4428Z" fill="url(#paint2_linear_604_984)"/>
<path d="M62.1979 20.885H59.2507C58.2005 20.885 57.3451 21.7403 57.3451 22.7905V37.6538C57.3451 38.704 58.2005 39.5593 59.2507 39.5593H62.1979C63.2481 39.5593 64.1035 38.704 64.1035 37.6538V22.7905C64.1035 21.7403 63.2481 20.885 62.1979 20.885ZM62.8331 37.6538C62.8331 38.001 62.5452 38.289 62.1979 38.289H59.2507C58.9034 38.289 58.6155 38.001 58.6155 37.6538V22.7905C58.6155 22.4433 58.9034 22.1553 59.2507 22.1553H62.1979C62.5452 22.1553 62.8331 22.4433 62.8331 22.7905V37.6538Z" fill="url(#paint3_linear_604_984)"/>
<path d="M77.0351 20.5971C72.0214 20.5971 68.1002 24.2134 68.1002 28.8376V37.6624C68.1002 38.7126 68.9556 39.5679 70.0058 39.5679H72.953C74.0032 39.5679 74.8586 38.7126 74.8586 37.6624V29.4643C74.8586 28.6343 75.0703 26.7034 77.0351 26.7034C78.9576 26.7034 79.2456 28.4311 79.2456 29.4643V37.6624C79.2456 38.7126 80.101 39.5679 81.1511 39.5679H84.0984C85.1486 39.5679 86.0039 38.7126 86.0039 37.6624V28.8291C86.0039 24.2134 82.0658 20.5971 77.0351 20.5971ZM84.7336 37.6539C84.7336 38.0012 84.4456 38.2891 84.0984 38.2891H81.1511C80.8039 38.2891 80.516 38.0012 80.516 37.6539V29.4558C80.516 26.8897 79.0847 25.4245 77.0351 25.4245C75.0195 25.4245 73.5882 26.8897 73.5882 29.4558V37.6539C73.5882 38.0012 73.3003 38.2891 72.953 38.2891H70.0058C69.6585 38.2891 69.3706 38.0012 69.3706 37.6539V28.8291C69.3706 25.0858 72.4872 21.859 77.0351 21.859C81.6169 21.859 84.7336 25.0858 84.7336 28.8291V37.6539Z" fill="url(#paint4_linear_604_984)"/>
<path d="M3.30348 19.1999H6.21685C7.26702 19.1999 8.1224 18.3445 8.1224 17.2943V9.05387C8.1224 7.79198 8.47811 6.29294 10.1889 6.29294C11.6625 6.29294 12.5433 7.32618 12.5433 9.05387V17.2943C12.5433 18.3445 13.3987 19.1999 14.4488 19.1999H17.3961C18.4463 19.1999 19.3016 18.3445 19.3016 17.2943V9.05387C19.3016 7.35158 20.1909 6.29294 21.6222 6.29294C23.3583 6.29294 23.7225 7.79198 23.7225 9.05387V17.2943C23.7225 18.3445 24.5779 19.1999 25.6281 19.1999H28.533C29.5831 19.1999 30.4385 18.3445 30.4385 17.2943V8.4695C30.4385 3.75221 26.6782 0.195186 21.6899 0.195186C19.5388 0.195186 17.557 0.838839 15.9733 2.02451C14.4234 0.855777 12.3908 0.195186 10.2482 0.195186C5.20056 0.195186 1.38946 3.75221 1.38946 8.4695V17.2943C1.39793 18.3445 2.25331 19.1999 3.30348 19.1999ZM2.67676 8.4695C2.67676 4.69228 5.71718 1.46555 10.2651 1.46555C12.6449 1.46555 14.669 2.34634 15.9817 3.7014C17.3368 2.34634 19.3186 1.46555 21.6984 1.46555C26.2802 1.46555 29.1766 4.69228 29.1766 8.4695V17.2943C29.1766 17.6416 28.8887 17.9295 28.5414 17.9295H25.6281C25.2808 17.9295 24.9929 17.6416 24.9929 17.2943V9.05387C24.9929 6.48773 23.6717 5.02258 21.6222 5.02258C19.6065 5.02258 18.0313 6.48773 18.0313 9.05387V17.2943C18.0313 17.6416 17.7433 17.9295 17.3961 17.9295H14.4488C14.1016 17.9295 13.8136 17.6416 13.8136 17.2943V9.05387C13.8136 6.48773 12.2384 5.02258 10.1804 5.02258C8.16475 5.02258 6.84357 6.48773 6.84357 9.05387V17.2943C6.84357 17.6416 6.55562 17.9295 6.20839 17.9295H3.29501C2.94778 17.9295 2.65983 17.6416 2.65983 17.2943V8.4695H2.67676Z" fill="url(#paint5_linear_604_984)"/>
<path d="M77.7796 0.101729C75.6284 0.101729 73.6466 0.745381 72.0629 1.93106C70.5131 0.762319 68.4805 0.101729 66.3378 0.101729C61.2902 0.101729 57.4791 3.65875 57.4791 8.37605V17.2009C57.4791 18.251 58.3345 19.1064 59.3847 19.1064H62.298C63.3482 19.1064 64.2036 18.251 64.2036 17.2009V8.96042C64.2036 7.69852 64.5593 6.19949 66.27 6.19949C67.7437 6.19949 68.6245 7.23272 68.6245 8.96042V17.2009C68.6245 18.251 69.4798 19.1064 70.53 19.1064H73.4773C74.5274 19.1064 75.3828 18.251 75.3828 17.2009V8.96042C75.3828 7.25813 76.2721 6.19949 77.7033 6.19949C79.4395 6.19949 79.8037 7.69852 79.8037 8.96042V17.2009C79.8037 18.251 80.6591 19.1064 81.7092 19.1064H84.6226C85.6728 19.1064 86.5282 18.251 86.5282 17.2009V8.37605C86.5366 3.65875 82.7679 0.101729 77.7796 0.101729ZM85.2578 17.2009C85.2578 17.5481 84.9698 17.836 84.6226 17.836H81.7092C81.362 17.836 81.0741 17.5481 81.0741 17.2009V8.96042C81.0741 6.39428 79.7529 4.92912 77.7033 4.92912C75.6877 4.92912 74.1124 6.39428 74.1124 8.96042V17.2009C74.1124 17.5481 73.8245 17.836 73.4773 17.836H70.53C70.1828 17.836 69.8948 17.5481 69.8948 17.2009V8.96042C69.8948 6.39428 68.3196 4.92912 66.2616 4.92912C64.2459 4.92912 62.9247 6.39428 62.9247 8.96042V17.2009C62.9247 17.5481 62.6368 17.836 62.2896 17.836H59.3762C59.029 17.836 58.741 17.5481 58.741 17.2009V8.37605C58.741 4.59883 61.7814 1.37209 66.3293 1.37209C68.7092 1.37209 70.7333 2.25288 72.046 3.60794C73.401 2.25288 75.3828 1.37209 77.7626 1.37209C82.3444 1.37209 85.2409 4.59883 85.2409 8.37605V17.2009H85.2578Z" fill="url(#paint6_linear_604_984)"/>
<path d="M99.5796 14.177C101.926 14.177 103.873 12.2714 103.873 9.88312C103.873 7.5033 101.934 5.58928 99.5796 5.58928C97.1998 5.58928 95.2858 7.49483 95.2858 9.88312C95.2858 12.2714 97.1913 14.177 99.5796 14.177ZM99.5796 6.85965C101.248 6.85965 102.595 8.2147 102.595 9.88312C102.595 11.5515 101.24 12.9066 99.5796 12.9066C97.8858 12.9066 96.5561 11.5769 96.5561 9.88312C96.5561 8.1893 97.8858 6.85965 99.5796 6.85965Z" fill="url(#paint7_linear_604_984)"/>
<path d="M99.5038 19.479C104.873 19.479 109.243 15.1089 109.243 9.73948C109.243 4.37006 104.89 0 99.5377 0C94.1852 0 89.8321 4.37006 89.8321 9.73948C89.8321 15.1089 94.1768 19.479 99.5038 19.479ZM99.5377 1.27037C104.196 1.27037 107.973 5.04759 107.973 9.73948C107.973 14.3975 104.196 18.2086 99.5038 18.2086C94.8458 18.2086 91.1025 14.3975 91.1025 9.73948C91.1109 5.04759 94.8458 1.27037 99.5377 1.27037Z" fill="url(#paint8_linear_604_984)"/>
<path d="M28.803 26.1186C26.4232 26.1186 24.5091 28.0242 24.5091 30.4124C24.5091 32.7923 26.4147 34.7063 28.803 34.7063C31.1489 34.7063 33.0968 32.8007 33.0968 30.4124C33.0968 28.0242 31.1489 26.1186 28.803 26.1186ZM28.803 33.4274C27.1092 33.4274 25.7795 32.0978 25.7795 30.404C25.7795 28.7102 27.1092 27.3805 28.803 27.3805C30.4714 27.3805 31.818 28.7356 31.818 30.404C31.8264 32.0724 30.4714 33.4274 28.803 33.4274Z" fill="url(#paint9_linear_604_984)"/>
<path d="M36.6028 20.8852H33.5878C33.1474 20.8937 32.7493 21.0461 32.4275 21.3087C31.3773 20.809 30.1239 20.5549 28.5741 20.521C23.9499 20.521 20.1134 23.6631 19.258 28.1687C18.6737 31.2514 19.4105 34.3172 21.2821 36.5785C23.0437 38.7042 25.6776 39.9238 28.5063 39.9238C29.9884 39.9238 31.3011 39.6443 32.3936 39.0938C32.7239 39.3818 33.1558 39.5511 33.6301 39.5596H36.5943C37.6445 39.5596 38.4998 38.7042 38.4998 37.6541V22.7908C38.5083 21.7406 37.6529 20.8852 36.6028 20.8852ZM37.238 37.6541C37.238 38.0013 36.95 38.2892 36.6028 38.2892H33.6386C33.2998 38.2892 33.0288 38.0182 33.0203 37.6795V37.1713C33.0203 37.1713 33.0203 37.1713 33.0119 37.1713V37.1459L32.8933 37.256C31.733 38.2469 30.2086 38.6534 28.5063 38.6534C23.2131 38.6534 19.4528 33.9361 20.503 28.4058C21.2652 24.4168 24.7037 21.6983 28.7604 21.7914C30.3441 21.8253 31.75 22.1895 32.8848 23.0787L32.9695 23.138V22.7908C32.9695 22.4435 33.249 22.1641 33.5962 22.1556H36.5858C36.9331 22.1556 37.221 22.4435 37.221 22.7908V37.6541H37.238Z" fill="url(#paint10_linear_604_984)"/>
<path d="M44.3689 19.4448C46.6979 19.4448 48.9677 18.7418 50.7631 17.463C51.1866 17.1581 51.4661 16.6923 51.5338 16.1672C51.6016 15.6337 51.4407 15.0917 51.1019 14.6767L49.4673 12.7288C49.3064 12.534 49.1032 12.3731 48.8745 12.263H51.7371C52.3553 12.263 52.9736 11.9073 53.3208 11.4076C53.8205 10.6792 53.6426 9.73071 53.5833 8.9092C53.524 8.18086 53.4224 7.44405 53.2107 6.74111C52.855 5.54697 52.2621 4.42058 51.4661 3.4551C49.8315 1.4818 47.4178 0.355402 44.8856 0.152144C44.5976 0.126736 44.3012 0.11827 44.0132 0.11827C38.2881 0.11827 33.9773 4.2766 33.9773 9.78999C33.9689 15.1933 38.5337 19.4448 44.3689 19.4448ZM44.0048 1.38017C49.0693 1.38017 52.3638 5.04729 52.3638 9.78152V9.94244H52.3553V10.3659C52.3553 10.7131 52.0758 10.9926 51.7286 10.9926H39.4484C40.0328 13.1184 42.0908 14.6259 44.3605 14.6259C45.5546 14.6259 46.6133 14.304 47.5787 13.4995C47.8582 13.2708 48.2563 13.2793 48.4849 13.5503L50.1195 15.4982C50.3566 15.7777 50.3227 16.218 50.0178 16.4298C48.4595 17.5392 46.4523 18.1829 44.352 18.1829C39.2875 18.1829 35.2223 14.5158 35.2223 9.78999C35.2392 5.04729 38.9402 1.38017 44.0048 1.38017ZM47.1722 12.2545C47.0282 12.3223 46.8927 12.4069 46.7742 12.5086C46.0797 13.0845 45.3344 13.3385 44.3689 13.3385C43.3357 13.3385 42.3618 12.9236 41.6588 12.246H47.1722V12.2545Z" fill="url(#paint11_linear_604_984)"/>
<path d="M47.9263 7.53757C47.2996 6.07242 45.9106 4.93756 44.0051 4.93756C42.1334 4.93756 40.592 5.96232 39.8214 7.53757H47.9263ZM44.0051 6.20792C44.2253 6.20792 44.437 6.23333 44.6403 6.26721H43.3276C43.5478 6.22486 43.768 6.20792 44.0051 6.20792Z" fill="url(#paint12_linear_604_984)"/>
<path d="M53.4482 28.9047C53.0248 28.6168 52.5844 28.3712 52.144 28.1594C52.1694 28.1594 52.1948 28.1594 52.2202 28.1594C52.8808 28.1594 53.5075 27.8122 53.8548 27.2448L55.0912 25.2122C55.6248 24.3314 55.3623 23.1626 54.4899 22.6122C52.4573 21.3249 50.1368 20.588 48.1212 20.588C44.6488 20.588 40.9055 22.4682 40.9055 26.5926C40.9055 28.4304 41.8456 30.048 43.5563 31.1575C44.6234 31.8435 45.7668 32.2585 46.8677 32.665L47.6892 32.9699C48.4599 33.2663 48.8495 33.478 49.0528 33.622C49.0274 33.6305 49.0104 33.6389 48.9765 33.6559C48.7055 33.749 48.3583 33.7999 47.9602 33.7999C46.9863 33.7999 45.7329 33.3425 44.3524 32.4871C44.0475 32.3008 43.6918 32.1992 43.3361 32.1992C42.6501 32.1992 42.0149 32.5718 41.6762 33.1731L40.4481 35.3836C40.1009 36.1712 40.3296 37.0689 41.1341 37.6956C43.5563 39.1523 45.8091 39.8637 48.028 39.8637C51.9577 39.8637 55.9381 37.7126 55.9381 33.6051C55.9466 31.6826 55.0574 30.0142 53.4482 28.9047ZM48.0365 38.5849C45.7837 38.5849 43.7003 37.7465 41.8032 36.6031C41.583 36.4253 41.5153 36.1373 41.6254 35.8833L42.7941 33.7914C42.9719 33.4696 43.3785 33.3764 43.6833 33.5712C44.9537 34.3588 46.4951 35.0787 47.9602 35.0787C48.443 35.0787 48.9511 35.0194 49.4 34.8585C49.7218 34.7399 50.0182 34.5536 50.2215 34.2741C51.1616 32.9529 49.0358 32.1399 48.1381 31.7927C46.8169 31.2845 45.4364 30.8695 44.2338 30.0989C42.9973 29.3028 42.1674 28.1171 42.1674 26.6096C42.1674 23.349 45.2501 21.8753 48.1042 21.8753C50.0606 21.8753 52.1355 22.6545 53.787 23.6962C54.0749 23.8825 54.1596 24.2721 53.9733 24.5601L52.7368 26.5926C52.559 26.8806 52.1863 26.9822 51.8899 26.8213C50.9922 26.3301 50.0945 25.8135 49.0951 25.5509C48.3075 25.3477 46.3765 25.2206 46.4019 26.4148C46.4019 26.4995 46.4189 26.5842 46.4358 26.6773C46.6814 27.736 48.0704 28.0154 48.9342 28.3203C50.2215 28.7692 51.5681 29.1757 52.7029 29.9549C53.9394 30.8103 54.6508 32.0806 54.6508 33.5966C54.6763 37.0774 51.0853 38.5849 48.0365 38.5849ZM50.5518 27.5242C50.3147 27.4396 48.9427 26.9738 48.9427 26.9738C48.7818 26.9229 48.4345 26.8128 48.1466 26.6858C48.4091 26.6943 48.6547 26.7366 48.7902 26.7705C49.3661 26.9229 49.9166 27.1855 50.5518 27.5242Z" fill="url(#paint13_linear_604_984)"/>
<path d="M48.7046 15.5915L47.9169 14.6599C46.6296 15.312 45.698 15.6677 44.3599 15.6169C41.6922 15.4983 38.7026 13.9908 38.0081 11.2892C37.7879 10.4338 37.7879 9.74777 37.7879 9.74777H51.0929C51.0675 5.58097 48.1541 2.48128 44.0042 2.48128C39.7358 2.48128 36.5091 5.54709 36.5091 9.61227C36.5091 13.6097 39.956 16.8449 44.3599 16.8449C45.9098 16.8364 47.4427 16.3283 48.7046 15.5915ZM38.4485 6.8344C39.5579 4.65784 41.6837 3.4891 44.0042 3.4891C46.257 3.4891 48.4674 4.79334 49.3652 6.86827C49.6108 7.42724 49.8479 8.62985 49.8479 8.62985H37.8387C37.8302 8.63832 38.042 7.6305 38.4485 6.8344Z" fill="url(#paint14_linear_604_984)"/>
<path d="M26.2708 8.88442V16.4897H27.9053V8.30005C27.9053 5.45443 25.7711 2.56646 21.6974 2.56646C19.7919 2.56646 18.0811 3.22705 16.8785 4.42967L15.9639 5.34433L15.0661 4.4212C13.9228 3.24399 12.1697 2.56646 10.2557 2.56646C6.65631 2.56646 3.93773 5.03097 3.93773 8.30005V16.4897H5.57226V8.88442C5.57226 5.66616 7.38465 3.58276 10.1795 3.58276C13.0674 3.58276 15.0831 5.76779 15.0831 8.88442V16.4897H16.76V8.88442C16.76 5.75932 18.7587 3.58276 21.6212 3.58276C24.4499 3.57429 26.2708 5.65769 26.2708 8.88442Z" fill="url(#paint15_linear_604_984)"/>
<path d="M77.779 2.473C75.8735 2.473 74.1627 3.1336 72.9516 4.33621L72.037 5.25087L71.1392 4.32774C69.9959 3.15053 68.2428 2.473 66.3288 2.473C62.7294 2.473 60.0108 4.93752 60.0108 8.20659V16.3962H61.6454V8.79096C61.6454 5.5727 63.4578 3.4893 66.2526 3.4893C69.1405 3.4893 71.1562 5.67433 71.1562 8.79096V16.3962H72.8331V8.79096C72.8331 5.66586 74.8318 3.4893 77.6943 3.4893C80.5145 3.4893 82.3354 5.5727 82.3354 8.79096V16.3962H83.97V8.20659C83.9869 5.36097 81.8611 2.473 77.779 2.473Z" fill="url(#paint16_linear_604_984)"/>
<path d="M99.5031 16.7688C103.475 16.7688 106.702 13.542 106.702 9.57002C106.702 5.59801 103.492 2.37128 99.537 2.37128C95.5904 2.37128 92.3721 5.59801 92.3721 9.57002C92.3721 13.542 95.5734 16.7688 99.5031 16.7688ZM99.5793 4.14979C102.645 4.14979 105.144 6.64818 105.144 9.71399C105.144 12.7798 102.645 15.2782 99.5793 15.2782C96.5135 15.2782 94.0151 12.7883 94.0151 9.71399C94.0151 6.63971 96.5135 4.14979 99.5793 4.14979Z" fill="url(#paint17_linear_604_984)"/>
<path d="M99.537 22.8923C95.5904 22.8923 92.3721 26.1191 92.3721 30.0911C92.3721 34.0631 95.565 37.2898 99.4946 37.2898C103.467 37.2898 106.693 34.0631 106.693 30.0911C106.702 26.1191 103.492 22.8923 99.537 22.8923ZM99.5793 35.7992C96.5135 35.7992 94.0151 33.3009 94.0151 30.235C94.0151 27.1692 96.5135 24.6708 99.5793 24.6708C102.645 24.6708 105.144 27.1608 105.144 30.235C105.144 33.3009 102.645 35.7992 99.5793 35.7992Z" fill="url(#paint18_linear_604_984)"/>
<path d="M10.3572 36.0193C6.94412 36.0193 4.17473 33.343 4.17473 30.057C4.17473 26.771 6.85097 24.0948 10.137 24.0948C11.8562 24.0948 13.3468 24.7554 14.5917 26.0681L15.7943 25.2127C14.1513 23.6967 12.2543 22.9345 10.137 22.9345C5.8008 22.9345 2.53172 26.0003 2.53172 30.0655C2.53172 34.0629 5.97018 37.188 10.3572 37.188C12.4575 37.188 14.3461 36.4258 15.9891 34.9268L14.8458 34.1561C13.5585 35.3841 12.051 36.0193 10.3572 36.0193Z" fill="url(#paint19_linear_604_984)"/>
<path d="M34.2566 25.7803C34.2566 25.7803 32.5204 22.8923 28.5061 22.8923C24.5679 22.8923 21.6038 25.9836 21.6038 30.0911C21.6038 34.1562 24.5679 37.2221 28.5061 37.2221C32.5204 37.2221 34.2905 34.4018 34.2905 34.4018V36.8494H35.9674V23.2565H34.2566V25.7803ZM28.8025 35.7992C25.7367 35.7992 23.2383 33.3009 23.2383 30.235C23.2383 27.1692 25.7367 24.6708 28.8025 24.6708C31.8683 24.6708 34.3667 27.1608 34.3667 30.235C34.3667 33.3009 31.8768 35.7992 28.8025 35.7992Z" fill="url(#paint20_linear_604_984)"/>
<path d="M48.9686 29.489C47.1816 28.8792 45.1575 28.1848 45.1575 26.2369C45.1575 25.1443 45.9282 23.9756 48.0793 23.9756C49.409 23.9756 50.8233 24.6193 51.9836 25.2375L52.5764 24.2636C51.1028 23.4336 49.4937 22.9593 48.1132 22.9593C46.377 22.9593 43.4467 23.6877 43.4467 26.4147C43.4467 28.3795 45.1744 29.1587 47.8168 30.1242C49.7223 30.8186 51.6956 31.5385 51.6956 33.4525C51.6956 35.0956 50.2305 36.1542 47.9692 36.1542C46.6565 36.1542 45.1829 35.6969 43.5907 34.7991L43.0825 35.7138C44.8356 36.6708 46.4702 37.1451 48.0454 37.1451C49.9002 37.1451 53.4064 36.3659 53.4064 33.4271C53.4064 31.1828 51.6533 30.4121 48.9686 29.489Z" fill="url(#paint21_linear_604_984)"/>
<path d="M61.5535 23.2562H59.8851V36.8492H61.5535V23.2562Z" fill="url(#paint22_linear_604_984)"/>
<path d="M77.0344 22.9593C73.3842 22.9593 70.6402 25.4069 70.6402 28.659V36.8487H72.3171V29.2773C72.3171 26.1014 74.2142 23.9756 77.0344 23.9756C79.88 23.9756 81.7856 26.1098 81.7856 29.2773V36.8487H83.4625V28.659C83.4625 25.4154 80.6931 22.9593 77.0344 22.9593Z" fill="url(#paint23_linear_604_984)"/>
<defs>
<linearGradient id="paint0_linear_604_984" x1="-1145.08" y1="19.9724" x2="274.384" y2="19.9724" gradientUnits="userSpaceOnUse">
<stop stop-color="#D203A0"/>
<stop offset="1" stop-color="#5900A3"/>
</linearGradient>
<linearGradient id="paint1_linear_604_984" x1="-475.9" y1="19.9991" x2="152.085" y2="19.9991" gradientUnits="userSpaceOnUse">
<stop stop-color="#D203A0"/>
<stop offset="1" stop-color="#5900A3"/>
</linearGradient>
<linearGradient id="paint2_linear_604_984" x1="30.4673" y1="20.0033" x2="675.542" y2="20.0033" gradientUnits="userSpaceOnUse">
<stop stop-color="#D203A0"/>
<stop offset="1" stop-color="#5900A3"/>
</linearGradient>
<linearGradient id="paint3_linear_604_984" x1="-841.736" y1="20.0034" x2="961.949" y2="20.0034" gradientUnits="userSpaceOnUse">
<stop stop-color="#D203A0"/>
<stop offset="1" stop-color="#5900A3"/>
</linearGradient>
<linearGradient id="paint4_linear_604_984" x1="-383.37" y1="19.9888" x2="297.491" y2="19.9888" gradientUnits="userSpaceOnUse">
<stop stop-color="#D203A0"/>
<stop offset="1" stop-color="#5900A3"/>
</linearGradient>
<linearGradient id="paint5_linear_604_984" x1="14.5962" y1="19.9925" x2="434.229" y2="19.9925" gradientUnits="userSpaceOnUse">
<stop stop-color="#D203A0"/>
<stop offset="1" stop-color="#5900A3"/>
</linearGradient>
<linearGradient id="paint6_linear_604_984" x1="-196.342" y1="20.0068" x2="223.291" y2="20.0068" gradientUnits="userSpaceOnUse">
<stop stop-color="#D203A0"/>
<stop offset="1" stop-color="#5900A3"/>
</linearGradient>
<linearGradient id="paint7_linear_604_984" x1="-1145.08" y1="20.0028" x2="274.384" y2="20.0028" gradientUnits="userSpaceOnUse">
<stop stop-color="#D203A0"/>
<stop offset="1" stop-color="#5900A3"/>
</linearGradient>
<linearGradient id="paint8_linear_604_984" x1="-475.9" y1="19.9957" x2="152.085" y2="19.9957" gradientUnits="userSpaceOnUse">
<stop stop-color="#D203A0"/>
<stop offset="1" stop-color="#5900A3"/>
</linearGradient>
<linearGradient id="paint9_linear_604_984" x1="-244.743" y1="19.9724" x2="1174.73" y2="19.9724" gradientUnits="userSpaceOnUse">
<stop stop-color="#D203A0"/>
<stop offset="1" stop-color="#5900A3"/>
</linearGradient>
<linearGradient id="paint10_linear_604_984" x1="-77.5164" y1="20.0033" x2="549.609" y2="20.0033" gradientUnits="userSpaceOnUse">
<stop stop-color="#D203A0"/>
<stop offset="1" stop-color="#5900A3"/>
</linearGradient>
<linearGradient id="paint11_linear_604_984" x1="-154.925" y1="19.9851" x2="465.093" y2="19.9851" gradientUnits="userSpaceOnUse">
<stop stop-color="#D203A0"/>
<stop offset="1" stop-color="#5900A3"/>
</linearGradient>
<linearGradient id="paint12_linear_604_984" x1="-454.575" y1="19.9765" x2="1049.44" y2="19.9765" gradientUnits="userSpaceOnUse">
<stop stop-color="#D203A0"/>
<stop offset="1" stop-color="#5900A3"/>
</linearGradient>
<linearGradient id="paint13_linear_604_984" x1="5.26982" y1="30.2228" x2="116.855" y2="30.2228" gradientUnits="userSpaceOnUse">
<stop stop-color="#D203A0"/>
<stop offset="1" stop-color="#5900A3"/>
</linearGradient>
<linearGradient id="paint14_linear_604_984" x1="-223.896" y1="19.9828" x2="484.57" y2="19.9828" gradientUnits="userSpaceOnUse">
<stop stop-color="#D203A0"/>
<stop offset="1" stop-color="#5900A3"/>
</linearGradient>
<linearGradient id="paint15_linear_604_984" x1="8.46269" y1="19.9871" x2="439.55" y2="19.9871" gradientUnits="userSpaceOnUse">
<stop stop-color="#D203A0"/>
<stop offset="1" stop-color="#5900A3"/>
</linearGradient>
<linearGradient id="paint16_linear_604_984" x1="-247.207" y1="20.0032" x2="184.031" y2="20.0032" gradientUnits="userSpaceOnUse">
<stop stop-color="#D203A0"/>
<stop offset="1" stop-color="#5900A3"/>
</linearGradient>
<linearGradient id="paint17_linear_604_984" x1="-660.029" y1="19.9885" x2="60.9974" y2="19.9885" gradientUnits="userSpaceOnUse">
<stop stop-color="#D203A0"/>
<stop offset="1" stop-color="#5900A3"/>
</linearGradient>
<linearGradient id="paint18_linear_604_984" x1="-660.419" y1="19.9962" x2="61.0334" y2="19.9962" gradientUnits="userSpaceOnUse">
<stop stop-color="#D203A0"/>
<stop offset="1" stop-color="#5900A3"/>
</linearGradient>
<linearGradient id="paint19_linear_604_984" x1="26.4845" y1="19.9748" x2="794.248" y2="19.9748" gradientUnits="userSpaceOnUse">
<stop stop-color="#D203A0"/>
<stop offset="1" stop-color="#5900A3"/>
</linearGradient>
<linearGradient id="paint20_linear_604_984" x1="-120.243" y1="19.9884" x2="599.083" y2="19.9884" gradientUnits="userSpaceOnUse">
<stop stop-color="#D203A0"/>
<stop offset="1" stop-color="#5900A3"/>
</linearGradient>
<linearGradient id="paint21_linear_604_984" x1="-394.564" y1="20.0002" x2="606.238" y2="20.0002" gradientUnits="userSpaceOnUse">
<stop stop-color="#D203A0"/>
<stop offset="1" stop-color="#5900A3"/>
</linearGradient>
<linearGradient id="paint22_linear_604_984" x1="-3541.68" y1="20.0003" x2="2651.09" y2="20.0003" gradientUnits="userSpaceOnUse">
<stop stop-color="#D203A0"/>
<stop offset="1" stop-color="#5900A3"/>
</linearGradient>
<linearGradient id="paint23_linear_604_984" x1="5.79461" y1="29.9055" x2="100.374" y2="29.9055" gradientUnits="userSpaceOnUse">
<stop stop-color="#D203A0"/>
<stop offset="1" stop-color="#5900A3"/>
</linearGradient>
</defs>
</svg>
