<svg width="500" height="500" viewBox="0 0 500 500" fill="none" xmlns="http://www.w3.org/2000/svg">
<g clip-path="url(#clip0_1_2)">
<path d="M278.273 270.554C278.273 272.182 276.951 274.115 274.306 276.149C271.662 278.183 266.779 279.302 259.659 279.302C252.539 279.302 246.64 277.064 242.062 272.69C237.485 268.215 235.146 262.417 235.146 255.297C235.146 248.177 237.485 242.277 242.062 237.903C246.64 233.428 252.539 231.19 259.761 231.19C266.983 231.19 271.865 232.207 274.408 234.343C276.951 236.378 278.273 238.31 278.273 239.938C278.273 241.565 277.765 243.091 276.646 244.413C275.527 245.736 274.306 246.346 272.984 246.346C271.662 246.346 269.627 245.837 266.779 244.82C263.931 243.803 261.795 243.294 260.371 243.294C252.641 243.294 248.776 247.261 248.776 255.297C248.776 263.333 252.641 267.299 260.371 267.299C261.795 267.299 263.931 266.791 266.779 265.774C269.627 264.757 271.763 264.248 272.984 264.248C274.306 264.248 275.527 264.858 276.646 266.181C277.765 267.401 278.273 268.927 278.273 270.554V270.554Z" fill="white"/>
<path d="M295.769 270.656L294.446 274.115C293.327 277.268 291.395 278.793 288.648 278.793C286.004 278.793 284.071 277.98 282.952 276.352C281.833 274.725 281.223 273.199 281.223 271.978C281.223 270.758 281.528 269.436 282.037 268.113L296.175 237.09C297.599 233.937 299.735 232.411 302.685 232.411C305.635 232.411 307.771 233.937 309.195 237.09L323.435 268.113C324.046 269.436 324.351 270.656 324.351 271.978C324.351 273.301 323.741 274.725 322.622 276.352C321.503 277.98 319.57 278.793 316.824 278.793C314.077 278.793 312.145 277.268 311.026 274.115L309.704 270.656H295.769ZM305.737 259.671L302.787 251.635L299.837 259.671H305.737Z" fill="white"/>
<path d="M345.813 278.997C341.439 278.997 337.167 278.285 332.997 276.861C328.826 275.437 326.792 272.996 326.792 269.334C326.792 265.774 328.419 263.943 331.674 263.943C332.183 263.943 334.116 264.553 337.37 265.875C340.727 267.096 343.575 267.808 346.016 267.808C348.458 267.808 349.678 266.791 349.678 264.757C349.678 263.434 348.864 262.315 347.135 261.4C345.508 260.485 343.168 259.569 340.117 258.552C337.167 257.535 335.234 256.823 334.522 256.314C331.064 253.975 329.335 250.618 329.335 246.142C329.335 241.667 330.759 238.107 333.709 235.361C336.557 232.614 339.913 231.292 343.779 231.292C347.644 231.292 351 231.699 353.849 232.614C359.24 234.343 361.376 236.785 360.358 240.141C359.341 243.498 357.409 245.024 354.662 244.718C354.459 244.718 353.035 244.21 350.492 243.294C347.949 242.379 345.813 241.87 343.88 241.87C341.948 241.87 340.931 242.786 340.931 244.718C340.931 245.939 341.744 246.956 343.372 247.872C344.999 248.787 347.339 249.703 350.288 250.72C353.238 251.737 355.171 252.551 355.985 253.059C359.545 255.399 361.274 258.959 361.274 263.739C361.274 268.52 359.748 272.182 356.697 274.928C353.95 277.675 350.288 278.997 345.813 278.997V278.997Z" fill="white"/>
<path d="M377.854 272.894C377.854 276.861 375.616 278.895 371.039 278.895C366.461 278.895 364.224 276.861 364.224 272.894V238.412C364.224 234.445 366.461 232.411 371.039 232.411C375.616 232.411 377.854 234.445 377.854 238.412V272.894Z" fill="white"/>
<path d="M409.386 253.161V238.412C409.386 234.445 411.623 232.411 416.201 232.411C420.778 232.411 423.016 234.445 423.016 238.412V272.894C423.016 276.861 420.778 278.895 416.201 278.895C413.658 278.895 411.725 277.98 410.199 276.251L394.942 258.145V272.894C394.942 276.861 392.704 278.895 388.127 278.895C383.55 278.895 381.312 276.861 381.312 272.894V238.412C381.312 234.445 383.55 232.411 388.127 232.411C391.077 232.411 393.111 233.326 394.332 235.259L409.386 253.161Z" fill="white"/>
<path d="M474.993 255.195C474.993 262.417 472.653 268.215 467.974 272.589C463.295 277.064 457.396 279.2 450.276 279.2C443.155 279.2 437.256 276.963 432.679 272.589C428.101 268.113 425.762 262.315 425.762 255.195C425.762 248.075 428.101 242.176 432.679 237.802C437.256 233.326 443.155 231.088 450.377 231.088C457.599 231.088 463.499 233.326 468.076 237.802C472.755 242.277 474.993 248.075 474.993 255.195ZM458.718 246.651C456.684 244.413 453.937 243.294 450.479 243.294C447.021 243.294 444.274 244.413 442.24 246.753C440.206 248.991 439.087 251.94 439.087 255.399C439.087 258.857 440.104 261.705 442.24 263.943C444.274 266.181 447.122 267.299 450.479 267.299C453.937 267.299 456.684 266.181 458.718 263.943C460.752 261.705 461.871 258.857 461.871 255.399C461.871 251.94 460.752 248.889 458.718 246.651Z" fill="white"/>
<path d="M70.9754 299.645C67.4154 299.34 64.7707 295.984 63.0416 289.982C61.3124 284.49 59.5832 279.2 57.854 274.114C56.2266 279.404 54.5991 284.49 52.9716 289.372C51.2425 294.661 48.5978 296.696 45.3429 296.085C41.9863 295.373 39.4434 292.423 37.5108 287.744C33.5438 273.097 29.6786 260.993 25.9151 251.635C25.3048 250.211 24.9996 248.685 24.9996 247.16C24.9996 245.634 25.6099 243.701 26.8305 241.26C28.0511 238.819 30.1872 236.174 33.3404 233.733C36.4936 231.292 38.7314 231.8 39.952 235.462C41.9863 241.769 44.0206 248.685 46.1566 256.314C47.3772 252.347 48.6996 248.177 49.9202 243.905C51.6493 238.005 54.1922 234.038 57.6506 232.614C61.109 231.19 63.7536 233.021 65.5845 238.31C66.9068 242.176 68.2291 246.244 69.6531 250.415C71.7892 239.938 73.9252 229.054 76.0613 217.967C77.3836 211.356 79.723 207.287 83.2831 206.168C86.8432 205.049 89.3861 205.863 90.8101 208.507C92.2341 211.05 92.9462 213.898 93.0479 216.848C93.0479 219.798 92.7427 222.951 92.0307 226.41C88.0638 246.651 83.8934 267.91 79.4179 290.491C77.2819 297.102 74.5355 300.052 70.9754 299.645V299.645Z" fill="#EE3661"/>
<path d="M159.977 251.737C159.876 265.774 156.824 277.166 150.721 286.32C144.72 295.577 137.091 300.764 127.835 301.171C118.579 301.578 111.052 296.899 105.05 287.541C99.0491 278.285 96.0994 266.282 95.9977 251.228C95.9977 236.276 98.8457 223.663 104.847 213.593C110.848 203.625 118.68 198.438 128.14 199.048C137.701 199.76 145.432 205.761 151.23 215.729C157.231 225.901 160.079 237.7 159.977 251.737V251.737ZM139.024 232.513C136.379 227.63 132.717 224.884 128.242 224.782C123.766 224.579 120.104 227.02 117.358 231.902C114.612 236.785 113.289 242.989 113.289 250.415C113.289 257.84 114.612 263.841 117.358 268.622C120.104 273.402 123.664 275.64 128.14 275.64C132.616 275.539 136.176 273.097 138.922 268.418C141.668 263.739 142.991 257.84 143.092 250.72C142.991 243.396 141.668 237.395 139.024 232.513Z" fill="#EE3661"/>
<path d="M222.228 258.654C222.228 267.096 219.685 273.911 214.294 280.726C208.903 287.541 201.884 292.83 193.238 294.458C184.593 296.085 177.269 293.237 171.573 285.303C165.877 277.369 163.029 265.875 163.13 251.94C163.232 238.005 166.284 227.02 172.183 220.205C178.083 213.39 185.508 212.271 194.154 216.034C202.8 219.798 209.615 226.816 214.701 234.75C219.786 242.888 222.228 250.211 222.228 258.654V258.654ZM203.715 243.6C201.274 239.633 198.121 236.886 193.95 235.666C189.78 234.547 186.423 235.564 183.779 239.022C181.134 242.481 179.812 247.465 179.71 253.67C179.608 259.874 180.931 265.163 183.474 269.13C186.017 273.097 189.373 274.928 193.544 274.725C197.714 274.623 200.969 272.589 203.512 269.232C205.953 265.875 207.275 261.807 207.275 256.924C207.275 251.839 206.055 247.567 203.715 243.6V243.6Z" fill="#EE3661"/>
</g>
<defs>
<clipPath id="clip0_1_2">
<rect width="450" height="102.198" fill="white" transform="translate(25 199)"/>
</clipPath>
</defs>
</svg>
