<svg xmlns="http://www.w3.org/2000/svg" viewBox="0 0 255 85">
<path d="M179.082 48.0032H155.532V77.1024H179.082V48.0032Z" fill="#FFCC00"/>
<path d="M201.684 48.0032H182.027V77.1024H201.684C202.716 77.1024 203.706 76.6939 204.436 75.9669C205.166 75.2399 205.576 74.2538 205.576 73.2256V51.8799C205.576 50.8517 205.166 49.8657 204.436 49.1386C203.706 48.4116 202.716 48.0032 201.684 48.0032Z" fill="#FFCC00"/>
<path d="M99.6022 48.0032H76.0529V77.1024H99.6022V48.0032Z" fill="#FFCC00"/>
<path d="M126.097 48.0032H102.548V77.1024H126.097V48.0032Z" fill="#FFCC00"/>
<path d="M152.587 48.0032H129.038V77.1024H152.587V48.0032Z" fill="#FFCC00"/>
<path d="M53.4507 48.0032C52.4183 48.0032 51.4282 48.4116 50.6982 49.1386C49.9682 49.8657 49.5581 50.8517 49.5581 51.8799V73.2162C49.5581 74.2444 49.9682 75.2304 50.6982 75.9575C51.4282 76.6845 52.4183 77.0929 53.4507 77.0929H73.1122V48.0032H53.4507Z" fill="#FFCC00"/>
<path d="M177.221 37.3916L172.433 27.4592C174.131 26.6966 175.515 25.3771 176.354 23.721C177.193 22.0648 177.436 20.1722 177.044 18.359C176.651 16.5457 175.645 14.9214 174.195 13.7572C172.745 12.593 170.938 11.9592 169.076 11.9616H148.889V37.3916H156.247V28.1808H164.615L169.057 37.3916H177.221ZM156.247 22.6486V17.5268H167.276C167.957 17.5268 168.61 17.7961 169.091 18.2755C169.572 18.7549 169.843 19.4051 169.843 20.083C169.843 20.761 169.572 21.4111 169.091 21.8905C168.61 22.3699 167.957 22.6392 167.276 22.6392H156.247V22.6486Z" fill="white"/>
<path d="M34.1538 8H24.5409L8 41.358H16.2018L20.6057 32.4867H38.0889L42.4787 41.358H50.6899L34.1538 8ZM23.8684 25.8981L29.3473 14.8527L34.8167 25.8981H23.8684Z" fill="white"/>
<path d="M202.276 11.9616H193.577L180.791 37.3916H188.188L190.982 31.8736H204.866L207.641 37.4011H215.038L202.276 11.9616ZM193.752 26.3367L197.924 18.0314L202.091 26.3367H193.752Z" fill="white"/>
<path d="M139.702 11.9616H132.343V37.3916H139.702V11.9616Z" fill="white"/>
<path d="M112.364 11.9616L105.621 23.9315L98.8729 11.9616H88.0856V37.3916H95.4397V19.3331L105.621 37.3916L115.797 19.3331V37.3916H123.156V11.9616H112.364Z" fill="white"/>
<path d="M226.337 34.7647V8H218.982V41.358H247.106V34.7552L226.337 34.7647Z" fill="white"/>
<path d="M69.0871 11.9616H53.6874V37.3916H69.0871C70.8221 37.4858 72.5582 37.2267 74.1894 36.6303C75.8205 36.0338 77.3125 35.1125 78.5742 33.9226C79.8359 32.7326 80.8407 31.299 81.5275 29.7093C82.2142 28.1196 82.5684 26.4072 82.5684 24.6766C82.5684 22.946 82.2142 21.2336 81.5275 19.6439C80.8407 18.0542 79.8359 16.6207 78.5742 15.4307C77.3125 14.2408 75.8205 13.3194 74.1894 12.723C72.5582 12.1265 70.8221 11.8675 69.0871 11.9616ZM67.2829 31.8736H61.0463V17.4891H67.2829C69.1969 17.4891 71.0325 18.2463 72.3859 19.5943C73.7393 20.9422 74.4996 22.7704 74.4996 24.6766C74.4996 26.5829 73.7393 28.4111 72.3859 29.759C71.0325 31.1069 69.1969 31.8642 67.2829 31.8642V31.8736Z" fill="white"/>
<path d="M89.3215 55.8274C89.1829 55.5522 88.9697 55.3212 88.7061 55.1603C88.4425 54.9995 88.139 54.9153 87.8299 54.9172C87.5214 54.9156 87.2187 55 86.9559 55.1609C86.6932 55.3217 86.4808 55.5526 86.343 55.8274L80.4616 67.6652C80.2663 68.0579 80.2356 68.5119 80.3764 68.9271C80.5171 69.3424 80.8178 69.6849 81.2121 69.8795C81.6065 70.074 82.0623 70.1045 82.4792 69.9643C82.8962 69.8241 83.2401 69.5247 83.4354 69.1319L84.2925 67.3209H91.3673L92.2244 69.1319C92.3622 69.4085 92.5749 69.6412 92.8384 69.8037C93.102 69.9662 93.406 70.0521 93.716 70.0516C93.971 70.0511 94.2223 69.9913 94.45 69.8771C94.8437 69.6825 95.1437 69.3402 95.284 68.9254C95.4243 68.5106 95.3934 68.0573 95.1982 67.6652L89.3215 55.8274ZM85.5853 64.5949L87.8299 59.8787L90.0745 64.5949H85.5853Z" fill="#002454"/>
<path d="M140.815 55.087C140.597 55.087 140.381 55.1298 140.179 55.2131C139.978 55.2963 139.795 55.4183 139.641 55.5721C139.487 55.7259 139.365 55.9084 139.282 56.1092C139.199 56.31 139.157 56.5252 139.157 56.7424V68.3632C139.157 68.801 139.332 69.2208 139.643 69.5304C139.953 69.8399 140.375 70.0139 140.815 70.0139C141.254 70.0139 141.676 69.8399 141.987 69.5304C142.297 69.2208 142.472 68.801 142.472 68.3632V56.7424C142.472 56.3041 142.298 55.8838 141.987 55.5735C141.676 55.2632 141.255 55.0882 140.815 55.087Z" fill="#002454"/>
<path d="M114.419 70.1884C115.328 70.1661 116.229 70.0071 117.09 69.7167C117.985 69.4205 118.764 68.8509 119.315 68.089C119.867 67.3271 120.164 66.4115 120.163 65.4721C120.249 63.114 118.814 61.7557 116.792 61.2275L113.505 60.3314C112.757 60.1286 112.25 59.6853 112.255 58.9165C112.26 58.1478 112.961 57.6384 113.832 57.5536C114.926 57.4929 116.014 57.7572 116.958 58.3129C117.182 58.4313 117.431 58.496 117.685 58.5017C117.939 58.5074 118.191 58.4541 118.421 58.3459C118.644 58.2172 118.822 58.0232 118.93 57.7903C119.039 57.5574 119.072 57.2969 119.027 57.0442C118.95 56.673 118.733 56.3454 118.421 56.1292C117.213 55.2407 115.728 54.8079 114.23 54.9077C113.316 54.9196 112.415 55.1204 111.583 55.4973C110.824 55.8424 110.18 56.3948 109.724 57.0901C109.268 57.7855 109.019 58.5954 109.007 59.4259C109.03 61.3596 110.427 62.7556 112.298 63.2932L115.703 64.2365C116.65 64.5006 117.066 65.1797 116.934 65.9626C116.801 66.7455 116.143 67.4058 114.386 67.4341C113.056 67.3863 111.765 66.9698 110.659 66.2314C110.397 66.044 110.076 65.9584 109.755 65.9909C109.582 65.9939 109.411 66.0314 109.252 66.1013C109.094 66.1711 108.951 66.2719 108.832 66.3976C108.713 66.5233 108.621 66.6715 108.561 66.8333C108.501 66.9951 108.473 67.1673 108.481 67.3397C108.479 67.5662 108.532 67.7898 108.635 67.9917C108.738 68.1935 108.888 68.3679 109.073 68.4999C110.067 69.2545 111.502 70.2214 114.419 70.1884Z" fill="#002454"/>
<path d="M65.5544 59.1571C65.8568 59.4667 66.263 59.6547 66.6957 59.6853C66.9015 59.6941 67.107 59.6622 67.3003 59.5915C67.4936 59.5207 67.6709 59.4124 67.822 59.273C67.9731 59.1335 68.0948 58.9656 68.1803 58.7789C68.2658 58.5922 68.3132 58.3906 68.3199 58.1855C68.3304 57.9674 68.2935 57.7496 68.2118 57.5469C68.1301 57.3442 68.0054 57.1615 67.8464 57.0112C66.7461 55.9163 65.3446 55.1709 63.819 54.8691C62.2934 54.5674 60.7122 54.7229 59.2754 55.316C57.8385 55.9091 56.6105 56.9132 55.7465 58.2013C54.8825 59.4894 54.4214 61.0037 54.4214 62.5528C54.4214 64.1018 54.8825 65.6161 55.7465 66.9042C56.6105 68.1923 57.8385 69.1964 59.2754 69.7895C60.7122 70.3826 62.2934 70.5381 63.819 70.2364C65.3446 69.9347 66.7461 69.1893 67.8464 68.0944C68.0061 67.9435 68.1311 67.76 68.2128 67.5565C68.2946 67.353 68.3311 67.1342 68.3199 66.9153C68.3132 66.7105 68.2658 66.509 68.1802 66.3226C68.0947 66.1362 67.9728 65.9686 67.8217 65.8295C67.6706 65.6904 67.4932 65.5826 67.2999 65.5123C67.1066 65.4421 66.9012 65.4108 66.6957 65.4203C66.2639 65.4504 65.8581 65.6366 65.5544 65.9438C64.6829 66.7898 63.5118 67.2597 62.2948 67.2518C61.0778 67.2439 59.913 66.7586 59.0527 65.9013C58.1981 64.9931 57.7225 63.7951 57.7225 62.5504C57.7225 61.3057 58.1981 60.1077 59.0527 59.1995C59.913 58.3422 61.0778 57.857 62.2948 57.849C63.5118 57.8411 64.6829 58.3111 65.5544 59.1571Z" fill="#002454"/>
<path d="M193.804 54.7191C192.245 54.7023 190.716 55.1474 189.411 55.9978C188.107 56.8483 187.085 58.0658 186.477 59.4957C185.868 60.9255 185.7 62.5032 185.994 64.0283C186.288 65.5535 187.03 66.9572 188.127 68.0613C189.223 69.1654 190.625 69.9199 192.153 70.2291C193.681 70.5383 195.267 70.3882 196.709 69.7979C198.151 69.2076 199.385 68.2036 200.253 66.9136C201.121 65.6236 201.584 64.1057 201.584 62.5528C201.59 61.5296 201.393 60.5154 201.005 59.5679C200.617 58.6205 200.046 57.7585 199.323 57.0311C198.601 56.3036 197.742 55.7251 196.795 55.3284C195.848 54.9317 194.831 54.7246 193.804 54.7191ZM193.804 67.2501C191.465 67.2501 189.566 65.1467 189.566 62.5339C189.566 59.9211 191.46 57.8177 193.804 57.8177C196.148 57.8177 198.038 59.9211 198.038 62.5339C198.038 65.1467 196.139 67.2454 193.804 67.2454V67.2501Z" fill="#002454"/>
<path d="M172.158 54.9172C171.719 54.9172 171.297 55.0911 170.986 55.4006C170.676 55.7102 170.501 56.1301 170.501 56.5679V64.5289L163.815 55.6199C163.612 55.334 163.324 55.1196 162.991 55.0076C162.658 54.8956 162.298 54.8918 161.963 54.9967C161.628 55.1017 161.335 55.3099 161.126 55.5915C160.918 55.873 160.805 56.2133 160.803 56.5631V68.5235C160.803 68.9613 160.977 69.3812 161.288 69.6907C161.599 70.0003 162.021 70.1742 162.46 70.1742C162.9 70.1742 163.321 70.0003 163.632 69.6907C163.943 69.3812 164.118 68.9613 164.118 68.5235V60.5719L170.804 69.4856C171.006 69.7736 171.295 69.9899 171.628 70.1032C171.962 70.2165 172.323 70.2209 172.66 70.1157C172.996 70.0106 173.29 69.8013 173.499 69.5183C173.708 69.2354 173.82 68.8935 173.821 68.5424V56.5679C173.819 56.1296 173.644 55.7098 173.332 55.4004C173.02 55.0909 172.598 54.9172 172.158 54.9172Z" fill="#002454"/>
</svg>