<?xml version="1.0" encoding="utf-8"?>
<!-- Generator: Adobe Illustrator 19.0.0, SVG Export Plug-In . SVG Version: 6.00 Build 0)  -->
<svg version="1.1" id="Layer_1" xmlns="http://www.w3.org/2000/svg" xmlns:xlink="http://www.w3.org/1999/xlink" x="0px" y="0px"
	 viewBox="0 0 245 60" style="enable-background:new 0 0 245 60;" xml:space="preserve">
<style type="text/css">
	.st0{fill:#ED1C24;}
	.st1{fill:#FFFFFF;}
	.st2{fill:#EC1C24;}
</style>
<g id="logo1_1_">
	<g id="XMLID_85_">
		<path id="XMLID_106_" class="st0" d="M14.6,32.6c-2,0-3.7-0.3-5.1-0.8c-1.4-0.6-2.6-1.4-3.7-2.4c-1.1-1.1-2-2.5-2.6-4.3
			c-0.7-1.8-1-4.2-1-7.2v-0.1c0-2.4,0.3-4.5,0.8-6.6c0.5-2,1.4-3.8,2.5-5.3C6.6,4.4,8,3.3,9.7,2.4s3.7-1.3,5.9-1.3
			c1,0,2,0.1,2.9,0.2s1.7,0.4,2.4,0.6c0.8,0.3,1.5,0.6,2.2,1.1c0.7,0.4,1.4,0.9,2,1.4l-3.5,5.2c-0.5-0.4-1-0.7-1.4-1
			c-0.5-0.3-0.9-0.6-1.4-0.8s-1-0.4-1.6-0.5s-1.1-0.2-1.8-0.2c-1,0-1.8,0.2-2.5,0.5c-0.7,0.4-1.3,0.9-1.8,1.5s-0.9,1.4-1.2,2.3
			c-0.3,0.9-0.5,1.8-0.6,2.8c0.8-0.5,1.6-0.9,2.6-1.3c1-0.4,2.2-0.6,3.7-0.6s2.9,0.2,4.2,0.6s2.4,1,3.4,1.8s1.7,1.8,2.3,3
			c0.6,1.2,0.8,2.6,0.8,4.2V22c0,1.6-0.3,3-0.9,4.3c-0.6,1.3-1.4,2.4-2.4,3.3c-1,0.9-2.3,1.6-3.7,2.2C17.8,32.4,16.3,32.6,14.6,32.6
			z M14.4,26.8c1.7,0,2.9-0.4,3.9-1.3c0.9-0.8,1.4-1.9,1.4-3.2v-0.1c0-1.3-0.5-2.4-1.4-3.2c-0.9-0.8-2.3-1.2-3.9-1.2
			c-1.7,0-2.9,0.4-3.9,1.2c-0.9,0.8-1.4,1.9-1.4,3.2v0.1c0,1.3,0.5,2.4,1.4,3.2C11.4,26.4,12.7,26.8,14.4,26.8z"/>
		<path id="XMLID_103_" class="st0" d="M40.2,32.6c-2,0-3.7-0.3-5.1-0.8c-1.4-0.6-2.6-1.4-3.7-2.4c-1.1-1.1-2-2.5-2.6-4.3
			c-0.7-1.8-1-4.2-1-7.2v-0.1c0-2.4,0.3-4.5,0.8-6.6c0.5-2,1.4-3.8,2.5-5.3s2.5-2.6,4.2-3.5s3.7-1.3,5.9-1.3c1,0,2,0.1,2.9,0.2
			s1.7,0.4,2.4,0.6C47.3,2.2,48,2.5,48.7,3c0.7,0.4,1.4,0.9,2,1.4l-3.5,5.2c-0.5-0.4-1-0.7-1.4-1c-0.5-0.3-0.9-0.6-1.4-0.8
			s-1-0.4-1.6-0.5S41.7,7.1,41,7.1c-1,0-1.8,0.2-2.5,0.5c-0.7,0.4-1.3,0.9-1.8,1.5s-0.9,1.4-1.2,2.3c-0.3,0.9-0.5,1.8-0.6,2.8
			c0.8-0.5,1.6-0.9,2.6-1.3c1-0.4,2.2-0.6,3.7-0.6s2.9,0.2,4.2,0.6s2.4,1,3.4,1.8s1.7,1.8,2.3,3s0.8,2.6,0.8,4.2V22
			c0,1.6-0.3,3-0.9,4.3c-0.6,1.3-1.4,2.4-2.4,3.3c-1,0.9-2.3,1.6-3.7,2.2C43.4,32.4,41.8,32.6,40.2,32.6z M39.9,26.8
			c1.7,0,2.9-0.4,3.9-1.3c0.9-0.8,1.4-1.9,1.4-3.2v-0.1c0-1.3-0.5-2.4-1.4-3.2c-0.9-0.8-2.3-1.2-3.9-1.2c-1.7,0-2.9,0.4-3.9,1.2
			c-0.9,0.8-1.4,1.9-1.4,3.2v0.1c0,1.3,0.5,2.4,1.4,3.2C37,26.4,38.3,26.8,39.9,26.8z"/>
		<path id="XMLID_100_" class="st0" d="M65.7,32.6c-2,0-3.7-0.3-5.1-0.8c-1.4-0.6-2.6-1.4-3.7-2.4c-1.1-1.1-2-2.5-2.6-4.3
			c-0.7-1.8-1-4.2-1-7.2v-0.1c0-2.4,0.3-4.5,0.8-6.6c0.5-2,1.4-3.8,2.5-5.3s2.5-2.6,4.2-3.5s3.7-1.3,5.9-1.3c1,0,2,0.1,2.9,0.2
			C70.4,1.5,71.2,1.7,72,2s1.5,0.6,2.2,1.1c0.7,0.4,1.4,0.9,2,1.4l-3.5,5.2c-0.5-0.4-1-0.7-1.4-1c-0.5-0.3-0.9-0.6-1.4-0.8
			s-1-0.4-1.6-0.5s-1.1-0.2-1.8-0.2c-1,0-1.8,0.2-2.5,0.5c-0.7,0.4-1.3,0.9-1.8,1.5s-0.9,1.4-1.2,2.3c-0.3,0.9-0.5,1.8-0.6,2.8
			c0.8-0.5,1.6-0.9,2.6-1.3c1-0.4,2.2-0.6,3.7-0.6s2.9,0.2,4.2,0.6c1.3,0.4,2.4,1,3.4,1.8s1.7,1.8,2.3,3c0.6,1.2,0.8,2.6,0.8,4.2
			v0.1c0,1.6-0.3,3-0.9,4.3c-0.6,1.3-1.4,2.4-2.4,3.3c-1,0.9-2.3,1.6-3.7,2.2C68.9,32.4,67.4,32.6,65.7,32.6z M65.5,26.8
			c1.7,0,2.9-0.4,3.9-1.3c0.9-0.8,1.4-1.9,1.4-3.2v-0.1c0-1.3-0.5-2.4-1.4-3.2c-0.9-0.8-2.3-1.2-3.9-1.2c-1.7,0-2.9,0.4-3.9,1.2
			c-0.9,0.8-1.4,1.9-1.4,3.2v0.1c0,1.3,0.5,2.4,1.4,3.2C62.5,26.4,63.8,26.8,65.5,26.8z"/>
		<path id="XMLID_98_" class="st1" d="M94.4,32.6c-2.2,0-4.3-0.4-6.2-1.2c-1.9-0.8-3.6-1.9-5-3.3c-1.4-1.4-2.5-3.1-3.3-5
			s-1.2-4-1.2-6.1v-0.1c0-2.2,0.4-4.2,1.2-6.1c0.8-1.9,1.9-3.6,3.3-5s3.1-2.6,5-3.4s4.1-1.2,6.4-1.2c1.4,0,2.7,0.1,3.9,0.3
			c1.2,0.2,2.2,0.6,3.2,1s1.8,0.9,2.7,1.5c0.8,0.6,1.6,1.2,2.3,1.9l-4.3,4.9c-1.2-1.1-2.4-1.9-3.6-2.5s-2.6-0.9-4.2-0.9
			c-1.3,0-2.5,0.2-3.5,0.7c-1.1,0.5-2,1.2-2.8,2c-0.8,0.9-1.4,1.9-1.8,3s-0.7,2.4-0.7,3.7v0.1c0,1.3,0.2,2.5,0.7,3.7
			c0.4,1.2,1,2.2,1.8,3c0.8,0.9,1.7,1.6,2.8,2.1c1.1,0.5,2.3,0.8,3.6,0.8c1.7,0,3.2-0.3,4.4-1c1.2-0.6,2.4-1.5,3.6-2.6l4.3,4.3
			c-0.8,0.8-1.6,1.6-2.4,2.3c-0.8,0.7-1.8,1.2-2.8,1.7s-2.1,0.8-3.3,1.1C97.3,32.5,95.9,32.6,94.4,32.6z"/>
		<path id="XMLID_95_" class="st1" d="M119.5,1.4h6.2l13.1,30.7h-7l-2.8-6.8h-13l-2.8,6.8h-6.8L119.5,1.4z M126.5,19.4l-4-9.9
			l-4,9.9H126.5z"/>
		<path id="XMLID_93_" class="st1" d="M151,32.6c-2.3,0-4.6-0.4-6.8-1.2s-4.3-2-6.1-3.7l4-4.7c1.4,1.1,2.8,2,4.3,2.7s3.1,1,4.8,1
			c1.4,0,2.5-0.3,3.2-0.8c0.8-0.5,1.2-1.2,1.2-2.1v-0.1c0-0.4-0.1-0.8-0.2-1.2c-0.2-0.3-0.5-0.6-0.9-0.9c-0.5-0.3-1.1-0.6-1.9-0.9
			c-0.8-0.3-1.8-0.6-3.1-0.9c-1.5-0.4-2.9-0.8-4.2-1.3s-2.3-1-3.2-1.7s-1.5-1.5-2-2.5s-0.7-2.3-0.7-3.8v-0.1c0-1.4,0.3-2.6,0.8-3.8
			c0.5-1.1,1.2-2.1,2.2-2.9c0.9-0.8,2.1-1.4,3.4-1.9c1.3-0.4,2.7-0.7,4.3-0.7c2.2,0,4.3,0.3,6.2,1s3.6,1.6,5.2,2.9l-3.5,5
			c-1.4-0.9-2.7-1.7-4-2.2S151.4,7,150.1,7c-1.3,0-2.3,0.3-2.9,0.8c-0.7,0.5-1,1.1-1,1.9v0.1c0,0.5,0.1,0.9,0.3,1.3
			c0.2,0.4,0.5,0.7,1,1s1.2,0.6,2,0.8c0.9,0.3,1.9,0.6,3.3,0.9c1.5,0.4,2.9,0.9,4.1,1.4c1.2,0.5,2.2,1.1,3.1,1.8
			c0.8,0.7,1.5,1.5,1.9,2.5s0.6,2.1,0.6,3.4V23c0,1.5-0.3,2.9-0.8,4s-1.3,2.2-2.3,3s-2.2,1.4-3.5,1.8
			C154.2,32.3,152.7,32.6,151,32.6z"/>
		<path id="XMLID_91_" class="st1" d="M165,1.7h6.7v30.5H165V1.7z"/>
		<path id="XMLID_89_" class="st1" d="M176.1,1.7h6.2l14.3,18.8V1.7h6.6v30.5h-5.7l-14.8-19.4v19.4h-6.6V1.7z"/>
		<path id="XMLID_86_" class="st1" d="M222,32.6c-2.3,0-4.5-0.4-6.5-1.2s-3.7-1.9-5.1-3.4c-1.4-1.4-2.6-3.1-3.4-5
			c-0.8-1.9-1.2-3.9-1.2-6.1v-0.1c0-2.2,0.4-4.2,1.2-6.1s1.9-3.6,3.4-5c1.4-1.4,3.1-2.6,5.1-3.4s4.2-1.2,6.5-1.2
			c2.4,0,4.5,0.4,6.5,1.2s3.7,1.9,5.1,3.4c1.4,1.4,2.6,3.1,3.4,5c0.8,1.9,1.2,3.9,1.2,6.1v0.1c0,2.2-0.4,4.2-1.2,6.1s-1.9,3.6-3.4,5
			c-1.4,1.4-3.1,2.6-5.1,3.4C226.5,32.2,224.3,32.6,222,32.6z M222.1,26.5c1.3,0,2.6-0.2,3.7-0.7c1.1-0.5,2.1-1.2,2.9-2
			c0.8-0.9,1.4-1.9,1.9-3c0.4-1.1,0.7-2.4,0.7-3.7V17c0-1.3-0.2-2.5-0.7-3.7s-1.1-2.2-1.9-3c-0.8-0.9-1.8-1.6-2.9-2.1
			c-1.1-0.5-2.4-0.8-3.7-0.8c-1.4,0-2.6,0.2-3.7,0.7c-1.1,0.5-2.1,1.2-2.9,2c-0.8,0.9-1.4,1.9-1.9,3s-0.7,2.4-0.7,3.7v0.1
			c0,1.3,0.2,2.5,0.7,3.7c0.4,1.2,1.1,2.2,1.9,3c0.8,0.9,1.8,1.6,2.9,2.1C219.5,26.2,220.7,26.5,222.1,26.5z"/>
	</g>
	<g id="XMLID_30_">
		<path id="XMLID_32_" class="st0" d="M232.1,51.5c-0.2,0-0.3,0.1-0.5,0.1c-0.2,0.1-0.3,0.1-0.4,0.2c-0.1,0.1-0.2,0.2-0.3,0.3
			s-0.1,0.3-0.1,0.4c0,0.2,0.1,0.4,0.2,0.5c0.2,0.1,0.4,0.2,0.6,0.2c0.1,0,0.3,0,0.4-0.1c0.2-0.1,0.3-0.1,0.5-0.2
			c0.2-0.1,0.3-0.2,0.4-0.4c0.1-0.1,0.2-0.3,0.2-0.4c0-0.3-0.1-0.5-0.2-0.6C232.7,51.5,232.4,51.4,232.1,51.5z"/>
		<path id="XMLID_2_" class="st0" d="M239.7,34.7l-0.5,0.1c-0.4,0.1-0.8,0.3-1.2,0.5c-0.3,0.2-0.7,0.4-1.1,0.7l-0.3,0.3l-0.3,0.3
			l0.4-0.1l0.4-0.1l-0.1,0.1l-0.1,0.1c-0.2,0.3-0.3,0.6-0.5,0.8c-0.2,0.3-0.3,0.6-0.4,0.9c-0.1,0.1-0.1,0.2-0.2,0.3
			c-0.1,0.1-0.2,0.1-0.3,0.1l0,0l0,0l0.5-2.2l0.5-2.2l0.3,0.3l0.3,0.3v-0.3v-0.3c0-0.5,0-0.9,0-1.5c0-0.5-0.1-1.1-0.2-1.7l-0.1-0.3
			l-0.1-0.3l-0.2,0.2l-0.2,0.2c-0.4,0.5-0.7,0.9-0.9,1.4c-0.3,0.4-0.5,0.8-0.6,1.3l-0.1,0.3l-0.1,0.3l0.4-0.1l0.4-0.1v0.2v0.2
			c-0.1,0.3-0.1,0.6-0.2,0.9c-0.1,0.3-0.1,0.6-0.2,0.9c-0.1,0.2-0.1,0.4-0.2,0.6c-0.1,0.2-0.1,0.4-0.2,0.6c0,0.1-0.1,0.2-0.1,0.3
			s-0.1,0.2-0.1,0.3c-0.1-0.1-0.2-0.2-0.2-0.3s0-0.1,0-0.2v-0.1v-0.1v-1.1v-1.1l0.3,0.2l0.3,0.2l-0.1-0.4l-0.1-0.4
			c-0.1-0.4-0.3-0.7-0.6-1.2c-0.3-0.4-0.5-0.7-0.9-1.1l-0.4-0.4l-0.4-0.4l0.2,0.5l0.2,0.5c0.3,0.9,0.4,2,0.4,2.9s0,1.9-0.1,2.8v0.4
			v0.4l0.3-0.3l0.3-0.3l0,0l0,0c0.1,0.1,0.2,0.2,0.3,0.3s0.2,0.2,0.3,0.2c0,0,0.1,0,0.1,0.1v0.1c-0.2,0.8-0.4,1.8-0.6,2.6
			c-0.2,0.8-0.4,1.8-0.6,2.6l-0.5,2.1l-0.5,2.1c0,0.1,0,0.1,0,0.2c0,0.1,0,0.2,0.1,0.3l0,0l0,0l0,0l0,0c0.1,0,0.2,0,0.2,0.1
			s0.1,0,0.2,0h0.1c0.1,0,0.1,0,0.2,0l0,0l0,0l0,0l0,0c0.1-0.1,0.2-0.1,0.2-0.2s0.1-0.2,0.1-0.2l1.1-4.3l1.1-4.3v-0.1
			c0,0,0-0.1,0-0.2c0-0.1,0-0.2,0-0.3s0-0.2,0.1-0.2c0,0,0.1-0.1,0.2-0.1s0.2,0,0.3,0c0.1,0,0.1,0,0.2,0s0.1,0,0.2,0c0,0,0,0,0.1,0
			l0,0l0.1,0.3l0.1,0.3l0.3-0.7l0.3-0.7c0.1-0.3,0.3-0.6,0.4-0.9c0.1-0.3,0.3-0.6,0.4-0.9c0.2-0.4,0.4-0.8,0.7-1.3
			c0.2-0.4,0.5-0.7,0.8-1.2"/>
	</g>
</g>
<g id="XMLID_109_">
	<path class="st2" d="M128.1,42.7c0,0.5-0.2,1-0.4,1.5c-0.2,0.5-0.5,1-0.8,1.5c-0.4,0.5-0.8,0.9-1.3,1.3c-0.5,0.4-1.1,0.8-1.8,1
		c0.1,0.2,0.2,0.4,0.3,0.6c0.1,0.2,0.2,0.4,0.2,0.7c0.1,0.4,0.2,0.7,0.3,1.1c0.1,0.4,0.1,0.7,0.2,1.1c0,0.4,0.1,0.7,0.1,1
		c0,0.3,0.1,0.6,0.1,0.7c0,0.3,0.2,0.6,0.3,0.7c0.2,0.1,0.4,0.2,0.6,0.2c0.2,0,0.4,0,0.6-0.1c0.2-0.1,0.4-0.1,0.5-0.2
		c0,0-0.1,0.1-0.2,0.3c-0.1,0.2-0.3,0.4-0.4,0.6c-0.2,0.2-0.4,0.4-0.7,0.5c-0.3,0.1-0.5,0.2-0.9,0.1c-0.2,0-0.4-0.1-0.6-0.2
		c-0.2-0.1-0.3-0.3-0.4-0.5c-0.1-0.2-0.2-0.5-0.3-0.9c-0.1-0.4-0.1-0.8-0.1-1.3c0-0.7,0-1.3-0.1-1.9c0-0.6-0.1-1.2-0.4-1.7
		c0-0.1-0.1-0.2-0.1-0.3c0-0.1-0.1-0.2-0.1-0.2c-0.4,0.1-1,0.2-1.5,0.2c-0.1,0.4-0.2,0.8-0.2,1.3c-0.1,0.4-0.2,0.9-0.3,1.3
		s-0.2,0.8-0.3,1.2c-0.1,0.4-0.2,0.7-0.3,0.9c-0.1,0.3-0.2,0.5-0.4,0.7c-0.2,0.2-0.4,0.3-0.8,0.3c-0.2,0-0.4,0-0.6-0.1
		c-0.2-0.1-0.3-0.2-0.5-0.4c0,0,0.1-0.1,0.2-0.2c0.1-0.1,0.2-0.2,0.3-0.4c0.1-0.2,0.3-0.5,0.4-0.9c0.1-0.4,0.3-0.9,0.5-1.6
		c0.1-0.3,0.1-0.6,0.2-1c0.1-0.4,0.2-0.8,0.3-1.2c-0.4-0.2-0.6-0.6-0.6-1c0-0.3,0.1-0.5,0.3-0.6c0.2-0.2,0.5-0.3,0.8-0.4
		c0.1-0.6,0.3-1.1,0.4-1.7c0.1-0.6,0.3-1.1,0.4-1.6c0.1-0.5,0.3-1,0.4-1.4c0.1-0.4,0.2-0.7,0.3-1c-0.2,0.1-0.4,0.3-0.6,0.4
		c-0.2,0.1-0.4,0.3-0.6,0.5c-0.2,0.2-0.4,0.4-0.6,0.6c-0.1-0.1-0.2-0.1-0.2-0.2c-0.1-0.1-0.1-0.1-0.1-0.2c0-0.1-0.1-0.1-0.1-0.2
		c-0.1-0.2-0.1-0.3-0.1-0.5s0.1-0.4,0.4-0.6c0.1-0.1,0.4-0.2,0.6-0.4c0.3-0.2,0.6-0.4,1.1-0.5c0.4-0.2,0.9-0.3,1.5-0.5
		c0.6-0.1,1.2-0.2,1.9-0.2s1.2,0.1,1.7,0.4c0.4,0.3,0.8,0.6,1,1c0.2,0.4,0.4,0.8,0.5,1.2C128.1,41.9,128.2,42.3,128.1,42.7z
		 M121.4,47.7c0.1,0,0.3,0,0.4-0.1c0.1,0,0.3-0.1,0.4-0.1c-0.2-0.2-0.4-0.3-0.7-0.3C121.4,47.4,121.4,47.6,121.4,47.7z M123.2,47.2
		c0.4-0.2,0.8-0.4,1.1-0.7c0.4-0.3,0.7-0.6,1-1c0.3-0.4,0.6-0.8,0.8-1.3c0.2-0.5,0.3-1,0.4-1.7c0-0.5,0-1-0.1-1.4
		c-0.1-0.4-0.3-0.7-0.5-0.9c-0.2-0.2-0.5-0.4-0.8-0.5c-0.3-0.1-0.6-0.1-0.9-0.1c-0.3,0-0.5,0-0.8,0.1c-0.3,0.1-0.5,0.2-0.8,0.3
		c0,0,0.1,0,0.1,0.1c0,0,0,0.1,0.1,0.1c0,0,0,0.1,0.1,0.2c-0.3,1.1-0.5,2-0.6,2.7c-0.2,0.7-0.3,1.3-0.4,1.7
		c-0.1,0.5-0.2,0.9-0.3,1.3c0,0,0,0.1,0,0.1c0,0,0,0.1,0,0.1c0.2,0.1,0.5,0.1,0.8,0.3C122.6,46.8,122.9,46.9,123.2,47.2z"/>
	<path class="st2" d="M135.3,47.9c-0.3,0.5-0.7,1-1.1,1.4c-0.4,0.5-0.9,0.9-1.3,1.2c-0.5,0.4-0.9,0.6-1.4,0.9
		c-0.5,0.2-1,0.3-1.4,0.3c-0.2,0-0.5-0.1-0.8-0.2c-0.3-0.1-0.5-0.3-0.8-0.5c-0.2-0.2-0.4-0.6-0.6-0.9c-0.1-0.4-0.2-0.8-0.1-1.4
		c0-0.4,0.2-0.9,0.4-1.4c0.2-0.5,0.5-1,0.9-1.4c0.3-0.4,0.7-0.8,1.2-1c0.4-0.3,0.9-0.4,1.3-0.4c0.4,0,0.7,0.1,0.9,0.3
		c0.2,0.2,0.3,0.5,0.2,0.8c0,0.3-0.1,0.7-0.3,0.9c-0.2,0.3-0.3,0.5-0.6,0.8c-0.2,0.2-0.5,0.4-0.7,0.6c-0.2,0.2-0.5,0.4-0.7,0.5
		c-0.2,0.2-0.5,0.3-0.7,0.5c-0.2,0.1-0.4,0.3-0.6,0.4c0,0.3,0.1,0.5,0.1,0.7c0.1,0.2,0.2,0.3,0.3,0.5s0.3,0.2,0.5,0.2
		s0.3,0.1,0.5,0.1c0.4,0,0.8-0.1,1.2-0.4c0.4-0.2,0.8-0.5,1.2-0.9c0.4-0.3,0.8-0.7,1.1-1c0.3-0.4,0.6-0.7,0.8-0.9
		c0.1-0.1,0.2-0.1,0.2-0.2c0.1,0,0.1,0,0.2,0c0,0,0.1,0.1,0.1,0.2C135.4,47.6,135.4,47.7,135.3,47.9z M131.1,45.3
		c-0.1,0-0.3,0.1-0.5,0.2c-0.2,0.1-0.4,0.3-0.5,0.6c-0.2,0.2-0.3,0.5-0.5,0.9c-0.2,0.4-0.3,0.8-0.3,1.2c0.1-0.1,0.3-0.2,0.4-0.3
		c0.2-0.1,0.3-0.2,0.5-0.3c0.5-0.4,0.8-0.7,1-1c0.2-0.3,0.3-0.5,0.3-0.7c0-0.2,0-0.4-0.1-0.5C131.3,45.4,131.2,45.3,131.1,45.3z"/>
	<path class="st2" d="M133.9,51c0.5-2,0.9-3.7,1.2-4.9c0.3-1.2,0.5-2.2,0.7-2.8c0.2-0.8,0.3-1.3,0.4-1.6c0-0.2,0.1-0.4,0.1-0.6
		c0-0.2,0-0.4,0-0.5c0-0.2,0-0.4,0-0.5c0.1-0.1,0.2-0.1,0.3-0.1c0.1,0,0.2-0.1,0.3-0.1c0.1,0,0.2-0.1,0.4-0.1c0.1,0,0.2,0,0.3,0
		c0.1,0,0.2,0,0.2,0c0.1,0,0.1,0.1,0.1,0.1c0.1,0.1,0.1,0.2,0.1,0.3c0,0.2,0,0.3,0,0.5c0,0.2-0.1,0.4-0.1,0.7
		c-0.1,0.5-0.3,1.2-0.5,2c-0.2,0.8-0.5,1.8-0.8,3.1c-0.3,1.3-0.8,2.9-1.3,4.9c-0.1,0.1-0.1,0.1-0.2,0.1c-0.1,0-0.1,0-0.2,0
		c-0.1,0-0.2,0-0.2,0c-0.1,0-0.2-0.1-0.2-0.1c-0.1,0-0.1-0.1-0.2-0.2C134,51.2,133.9,51.1,133.9,51z"/>
	<path class="st2" d="M139.2,45.1c0.1-0.1,0.2-0.1,0.3-0.2c0.2,0,0.3-0.1,0.5-0.1c0.2,0,0.3,0,0.5,0c0.1,0,0.2,0,0.2,0
		c0,0,0,0.1-0.1,0.3c-0.1,0.2-0.1,0.5-0.2,0.8c-0.1,0.3-0.2,0.6-0.3,0.9s-0.2,0.6-0.2,0.8s-0.1,0.4-0.2,0.7s-0.1,0.5-0.2,0.7
		c-0.1,0.2-0.1,0.5-0.1,0.7c0,0.2,0,0.4,0,0.5c0.1,0.1,0.1,0.2,0.2,0.3c0.1,0,0.1,0.1,0.2,0.1c0.2,0,0.5-0.1,0.8-0.4
		c0.3-0.2,0.7-0.5,1-0.9c0.3-0.3,0.7-0.7,1-1c0.3-0.3,0.5-0.6,0.7-0.8c0.1-0.1,0.2-0.2,0.3-0.2c0.1,0,0.2,0,0.2,0
		c0.1,0,0.1,0.1,0.1,0.2c0,0.1,0,0.2-0.1,0.3c-0.2,0.3-0.4,0.7-0.8,1.1c-0.3,0.4-0.7,0.8-1.1,1.2c-0.4,0.4-0.8,0.7-1.1,1
		s-0.7,0.4-0.9,0.4c-0.2,0-0.4,0-0.6-0.1c-0.2-0.1-0.3-0.2-0.5-0.3c-0.1-0.1-0.3-0.3-0.4-0.4c-0.1-0.2-0.2-0.3-0.2-0.5
		c0-0.3,0-0.6,0-1.1s0.1-1,0.2-1.5c0.1-0.5,0.2-1,0.3-1.4C138.8,45.7,139,45.3,139.2,45.1z M141.4,41.6c0,0.1-0.1,0.2-0.2,0.4
		s-0.2,0.2-0.3,0.3c-0.1,0.1-0.2,0.1-0.4,0.1c-0.1,0-0.2,0-0.3-0.1c-0.2-0.2-0.4-0.4-0.4-0.6c0-0.2,0-0.4,0.1-0.6
		c0.1-0.2,0.2-0.3,0.4-0.5c0.2-0.1,0.3-0.2,0.4-0.2c0.1,0,0.2,0,0.3,0.1c0.1,0.1,0.1,0.2,0.2,0.3c0,0.1,0.1,0.2,0.1,0.4
		C141.5,41.4,141.5,41.5,141.4,41.6z"/>
	<path class="st2" d="M146.8,53.6c-0.1,0.3-0.1,0.6-0.2,1c-0.1,0.4-0.2,0.8-0.3,1.2c-0.1,0.4-0.2,0.9-0.4,1.3
		c-0.1,0.4-0.3,0.8-0.5,1.2s-0.3,0.6-0.5,0.8c-0.2,0.2-0.4,0.3-0.7,0.3c-0.4,0-0.7-0.1-0.9-0.3s-0.5-0.5-0.6-0.8
		c-0.2-0.3-0.3-0.7-0.4-1c-0.1-0.4-0.1-0.7-0.1-1c0-0.4,0-0.8,0.1-1.1c0.1-0.3,0.2-0.6,0.4-0.8c0.2-0.3,0.5-0.5,0.8-0.8
		s0.8-0.7,1.3-1.1c0.3-0.2,0.5-0.4,0.7-0.6s0.4-0.4,0.7-0.5c0.1-0.2,0.1-0.4,0.2-0.6c0-0.2,0.1-0.4,0.1-0.5c-0.3,0.4-0.6,0.7-1,1
		c-0.4,0.3-0.9,0.4-1.4,0.4c-0.5,0-0.9-0.2-1.1-0.6c-0.3-0.4-0.4-1-0.4-1.9c0-0.4,0.1-0.9,0.2-1.4c0.2-0.5,0.4-1,0.7-1.5
		c0.3-0.5,0.6-0.8,1.1-1.2c0.4-0.3,0.9-0.5,1.4-0.5c0.2,0,0.4,0.1,0.6,0.2c0.2,0.1,0.3,0.3,0.4,0.5s0.2,0.4,0.3,0.6
		c0.1,0.2,0.1,0.4,0.1,0.6c0-0.1,0-0.1,0-0.2c0-0.1,0-0.1,0-0.2c0.1-0.4,0.2-0.6,0.4-0.8c0.1-0.1,0.3-0.2,0.6-0.2
		c0.2,0,0.3,0,0.4,0.1c0.1,0.1,0.2,0.1,0.2,0.1c-0.1,0.1-0.1,0.2-0.1,0.3c0,0.1-0.1,0.1-0.1,0.2c0,0.1-0.1,0.2-0.1,0.3
		c0,0.1-0.1,0.3-0.1,0.5c0,0.1-0.1,0.3-0.1,0.5s-0.1,0.6-0.2,1c-0.1,0.4-0.2,0.8-0.3,1.3s-0.2,0.9-0.3,1.3c0.3-0.2,0.6-0.4,1-0.6
		c0.3-0.3,0.6-0.5,0.9-0.8c0.3-0.3,0.6-0.5,0.8-0.7c0.2-0.2,0.4-0.4,0.5-0.6c0.1-0.1,0.2-0.2,0.3-0.3c0.1-0.1,0.2-0.1,0.3-0.1
		c0.1,0,0.1,0.1,0.1,0.1c0,0.1,0,0.2-0.1,0.3c-0.3,0.4-0.6,0.8-0.9,1.2c-0.4,0.4-0.7,0.7-1.1,1.1c-0.4,0.3-0.7,0.6-1.1,0.9
		c-0.4,0.2-0.7,0.4-0.9,0.6c-0.1,0.5-0.2,0.9-0.3,1.2C146.9,53.1,146.8,53.4,146.8,53.6z M143.9,58c0.2,0,0.4-0.2,0.5-0.5
		c0.1-0.3,0.3-0.8,0.4-1.3c0-0.1,0.1-0.3,0.1-0.6s0.1-0.5,0.2-0.8c0.1-0.3,0.2-0.7,0.3-1c0.1-0.4,0.2-0.7,0.3-1.1
		c-0.1,0.1-0.2,0.2-0.3,0.2c-0.1,0.1-0.2,0.2-0.3,0.3c-0.2,0.2-0.5,0.5-0.7,0.7s-0.4,0.4-0.6,0.7c-0.2,0.2-0.3,0.5-0.4,0.8
		c-0.1,0.3-0.2,0.6-0.2,1c0,0.4,0,0.7,0,0.9c0,0.2,0.1,0.4,0.1,0.5s0.1,0.2,0.2,0.3C143.8,58,143.9,58,143.9,58z M144.7,50.4
		c0.2,0,0.4-0.1,0.6-0.2c0.2-0.1,0.4-0.3,0.6-0.4c0.2-0.2,0.3-0.3,0.4-0.5s0.2-0.3,0.2-0.4c0-0.1,0.1-0.2,0.2-0.4s0.1-0.3,0.1-0.5
		c0-0.2,0-0.3,0-0.4c0-0.1,0-0.2-0.1-0.2c-0.1,0-0.1-0.1-0.2-0.1c0-0.1-0.1-0.2-0.1-0.3c0-0.1,0-0.2,0-0.3c0-0.1,0-0.2,0-0.3
		c-0.1-0.4-0.1-0.7-0.3-0.8c-0.1-0.2-0.3-0.3-0.4-0.3c-0.3,0-0.5,0.1-0.8,0.3c-0.2,0.2-0.5,0.5-0.7,0.8c-0.2,0.3-0.3,0.7-0.5,1.1
		c-0.1,0.4-0.2,0.8-0.2,1.2c0,0.5,0.1,0.8,0.2,1.1C144,50.3,144.3,50.4,144.7,50.4z"/>
	<path class="st2" d="M158.7,47.7c0.1-0.1,0.2-0.1,0.2-0.1c0.1,0,0.1,0,0.2,0.1s0.1,0.1,0.1,0.2c0,0.1-0.1,0.2-0.1,0.3
		c-0.2,0.3-0.4,0.6-0.7,0.9c-0.3,0.3-0.6,0.6-0.9,0.9c-0.3,0.3-0.6,0.6-0.9,0.8c-0.3,0.3-0.6,0.5-0.9,0.6c-0.3,0.2-0.6,0.3-0.8,0.3
		s-0.4-0.1-0.7-0.4c-0.2-0.3-0.3-0.5-0.3-0.8c0-0.3,0.1-0.7,0.2-1.1c0.1-0.3,0.2-0.6,0.3-1c0.1-0.4,0.2-0.7,0.3-1.1
		c0.1-0.4,0.1-0.6,0.1-0.9s-0.2-0.4-0.4-0.4c-0.2,0-0.4,0.1-0.6,0.2c-0.2,0.1-0.4,0.3-0.6,0.5c-0.2,0.2-0.4,0.4-0.6,0.6
		c-0.2,0.2-0.4,0.5-0.5,0.7c-0.1,0.4-0.2,0.8-0.3,1.3c-0.1,0.4-0.2,0.7-0.2,1.1c-0.1,0.4-0.2,0.8-0.2,1.1c-0.1,0.1-0.1,0.1-0.2,0.1
		c-0.1,0-0.1,0-0.2,0c-0.1,0-0.2,0-0.2,0c-0.1,0-0.2-0.1-0.2-0.1c-0.1,0-0.1-0.1-0.2-0.2c-0.1-0.1-0.1-0.2-0.1-0.3
		c0.5-2,0.9-3.7,1.2-4.9c0.3-1.2,0.5-2.2,0.7-2.8c0.2-0.8,0.3-1.3,0.4-1.6c0-0.2,0.1-0.4,0.1-0.6c0-0.2,0-0.4,0-0.5
		c0-0.2,0-0.4,0-0.5c0.1-0.1,0.2-0.1,0.3-0.1c0.1,0,0.2-0.1,0.3-0.1c0.1,0,0.2-0.1,0.4-0.1c0.1,0,0.2,0,0.3,0c0.1,0,0.2,0,0.2,0
		c0.1,0,0.1,0.1,0.1,0.1c0.1,0.1,0.1,0.2,0.1,0.3s0,0.3,0,0.5c0,0.2-0.1,0.4-0.1,0.7c-0.2,0.9-0.5,1.8-0.8,2.6s-0.5,1.7-0.8,2.7
		c0.1-0.2,0.3-0.4,0.5-0.7c0.2-0.2,0.4-0.4,0.6-0.6c0.2-0.2,0.5-0.4,0.7-0.5c0.3-0.1,0.5-0.2,0.8-0.2c0.2,0,0.3,0,0.4,0.1
		c0.1,0,0.3,0.1,0.4,0.2c0.1,0.1,0.2,0.3,0.2,0.5c0.1,0.2,0.1,0.4,0.1,0.7c0,0.2,0,0.4-0.1,0.5c0,0.2-0.1,0.4-0.2,0.6
		c-0.1,0.2-0.2,0.5-0.3,0.7c-0.1,0.3-0.2,0.6-0.4,1c-0.1,0.3-0.2,0.5-0.2,0.6c-0.1,0.2,0,0.3,0,0.5c0.1,0.2,0.3,0.2,0.6,0.1
		c0.3-0.1,0.7-0.4,1.3-0.8c0.1-0.1,0.3-0.2,0.4-0.4c0.2-0.2,0.3-0.3,0.5-0.5c0.2-0.2,0.3-0.3,0.4-0.5
		C158.5,47.9,158.6,47.8,158.7,47.7z"/>
	<path class="st2" d="M164.1,47.1c0-0.1,0.1-0.1,0.2-0.1c0.1,0,0.1,0,0.2,0c0,0,0.1,0.1,0.1,0.2c0,0.1,0,0.2-0.1,0.3
		c-0.2,0.4-0.5,0.9-0.9,1.3c-0.4,0.5-0.7,0.9-1.1,1.4c-0.4,0.4-0.8,0.8-1.2,1c-0.4,0.3-0.7,0.4-0.9,0.4c-0.4,0-0.7-0.1-0.9-0.2
		c-0.2-0.1-0.4-0.3-0.6-0.5c-0.1-0.2-0.2-0.4-0.3-0.7c-0.1-0.2-0.1-0.5,0-0.7c0-0.2,0-0.5,0.1-0.9c0.1-0.5,0.2-1,0.3-1.6
		c0.1-0.6,0.2-1.2,0.4-1.9c0.1-0.7,0.3-1.3,0.4-2c-0.2,0-0.4,0-0.6,0.1c-0.2,0-0.4,0-0.5,0c-0.4,0-0.7,0-1-0.1s-0.5-0.2-0.7-0.2
		c-0.1,0-0.1-0.1-0.1-0.2c0-0.1,0-0.2,0.1-0.2c0.1-0.1,0.1-0.2,0.2-0.2c0.1-0.1,0.2-0.1,0.2-0.1c0.2,0,0.4,0,0.7,0.1
		c0.2,0,0.5,0,0.8,0c0.2,0,0.4,0,0.6,0c0.2,0,0.4,0,0.6-0.1c0.1-0.5,0.3-1,0.4-1.4c0.1-0.4,0.3-0.7,0.4-0.8c0-0.1,0.1-0.1,0.2-0.1
		c0.1,0,0.2-0.1,0.4-0.1c0.1,0,0.3,0,0.4,0c0.1,0,0.2,0.1,0.3,0.1c0.1,0.1,0.1,0.3,0.1,0.7c0,0.4-0.1,0.8-0.2,1.4
		c0.5,0,0.9,0,1.2,0.1c0.4,0,0.7,0.1,0.9,0.2c0.3,0.1,0.5,0.1,0.6,0.2c0.2,0.1,0.3,0.1,0.3,0.1c0.1,0,0.1,0.1,0.1,0.2
		c0,0.1,0,0.2,0,0.3c0,0.1-0.1,0.2-0.2,0.2c-0.1,0.1-0.2,0.1-0.3,0.1c-0.1,0-0.2,0-0.4-0.1s-0.3-0.1-0.5-0.1c-0.2,0-0.4,0-0.7-0.1
		c-0.3,0-0.6,0-0.9,0c-0.1,0-0.1,0-0.2,0c-0.1,0-0.2,0-0.3,0c0,0.2-0.1,0.3-0.1,0.5c0,0.2-0.1,0.3-0.2,0.5c-0.1,0.4-0.3,0.9-0.5,1.4
		c-0.2,0.4-0.4,1-0.6,1.5c-0.2,0.6-0.5,1.2-0.8,1.9c-0.1,0.5-0.1,0.8,0,1.1c0.1,0.2,0.2,0.4,0.3,0.5c0.1,0.1,0.3,0.2,0.5,0.2
		c0.2,0,0.4,0,0.6-0.2c0.2-0.1,0.5-0.3,0.7-0.6c0.3-0.2,0.5-0.5,0.8-0.8c0.3-0.3,0.5-0.5,0.7-0.8c0.2-0.3,0.4-0.5,0.6-0.7
		S164,47.2,164.1,47.1z"/>
	<path class="st2" d="M170.4,50c-0.7,0-1.3-0.2-1.6-0.7c-0.3-0.5-0.5-1.1-0.4-1.9c0-0.5,0.1-1.1,0.3-1.9c0.1-0.7,0.3-1.5,0.6-2.5
		c0.2-1,0.6-2.2,1-3.6c0.1-0.1,0.3-0.2,0.4-0.2c0.1,0,0.3-0.1,0.4-0.1c0.1,0,0.2-0.1,0.4-0.1c0.1,0,0.2,0,0.3,0c0.1,0,0.2,0,0.3,0
		c0.1,0,0.2,0,0.2,0.1c-0.6,1.4-1,2.7-1.3,3.7c-0.3,1-0.5,1.9-0.7,2.5c-0.2,0.8-0.3,1.4-0.3,1.9c0,0.6,0.1,1,0.3,1.3
		c0.2,0.3,0.5,0.4,1,0.4c0.3,0,0.7-0.1,1-0.4c0.4-0.3,0.7-0.6,1-1.1c0.3-0.5,0.6-1.1,0.9-1.7c0.3-0.7,0.5-1.4,0.7-2.3
		c0.1-0.5,0.2-0.9,0.3-1.4c0.1-0.4,0.2-0.8,0.3-1.3c0.1-0.5,0.2-0.9,0.3-1.3c0.1-0.1,0.2-0.2,0.3-0.2c0.1,0,0.2-0.1,0.3-0.1
		c0.1,0,0.2-0.1,0.4-0.1c0.1,0,0.2,0,0.3,0c0.1,0,0.2,0,0.3,0c0.1,0,0.2,0.1,0.2,0.1c-0.2,0.6-0.3,1.1-0.5,1.6
		c-0.1,0.5-0.3,0.9-0.4,1.2c-0.1,0.4-0.2,0.7-0.3,1.1c-0.1,0.3-0.2,0.8-0.3,1.3c-0.1,0.5-0.3,1-0.4,1.7c-0.2,0.7-0.4,1.6-0.6,2.6
		c-0.1,0.3-0.1,0.6-0.2,1s-0.2,0.8-0.4,1.2c-0.2,0.4-0.4,0.9-0.6,1.3c-0.2,0.4-0.5,0.8-0.9,1.1c-0.3,0.3-0.8,0.6-1.2,0.8
		c-0.5,0.2-1,0.3-1.6,0.3c-0.4,0-0.7-0.1-1-0.2c-0.3-0.1-0.5-0.2-0.7-0.4c-0.2-0.2-0.3-0.4-0.4-0.7c0.1-0.1,0.1-0.2,0.2-0.3
		c0.1-0.1,0.1-0.2,0.2-0.3c0.1-0.1,0.2-0.2,0.2-0.3c0.1-0.1,0.2-0.1,0.2-0.2c0.1-0.1,0.2-0.1,0.2-0.1c0.1,0,0.2-0.1,0.3-0.1
		c0,0.1,0.1,0.2,0.2,0.3c0.1,0.1,0.2,0.3,0.3,0.4c0.1,0.1,0.3,0.2,0.4,0.3c0.2,0.1,0.3,0.1,0.5,0.1c0.3,0,0.5-0.1,0.8-0.3
		c0.3-0.2,0.6-0.5,0.9-0.9c0.3-0.4,0.6-1,0.8-1.7c0.3-0.7,0.5-1.6,0.8-2.6c-0.1,0.3-0.3,0.5-0.5,0.8s-0.5,0.6-0.8,0.8
		c-0.3,0.3-0.7,0.5-1.1,0.7C171.3,49.9,170.9,50,170.4,50z"/>
	<path class="st2" d="M181.6,48.7c-0.1,0.4-0.3,0.8-0.4,1.2c-0.2,0.4-0.4,0.7-0.7,0.9s-0.5,0.5-0.9,0.6c-0.3,0.1-0.7,0.2-1.1,0.2
		c-0.4,0-0.8-0.1-1.1-0.3s-0.4-0.4-0.6-0.7c-0.1-0.3-0.2-0.6-0.2-0.9c0-0.3,0-0.7,0-1c0-0.2,0-0.4,0.1-0.7c0-0.3,0.1-0.5,0.2-0.8
		s0.2-0.5,0.3-0.8c0.1-0.3,0.3-0.5,0.5-0.7c0.1-0.2,0.2-0.4,0.3-0.5c0.1-0.1,0.3-0.3,0.5-0.4c0.2-0.1,0.4-0.2,0.6-0.2
		c0.2,0,0.4-0.1,0.6-0.1c0,0,0.1,0,0.1,0c0,0,0.1,0,0.1,0c0.1,0,0.3,0.1,0.5,0.2s0.4,0.2,0.6,0.4c0.2,0.2,0.4,0.4,0.5,0.7
		c0.1,0.3,0.2,0.7,0.2,1.1c0,0.1,0,0.2,0,0.3c0,0.1,0,0.2,0,0.3c0.3-0.1,0.5-0.2,0.8-0.4c0.3-0.1,0.5-0.3,0.8-0.5
		c0.3-0.2,0.5-0.3,0.7-0.5s0.4-0.3,0.5-0.4c0.1-0.1,0.2-0.2,0.3-0.2c0.1,0,0.1,0,0.2,0.1c0,0.1,0,0.1,0,0.2c0,0.1-0.1,0.2-0.2,0.3
		c-0.1,0.1-0.2,0.2-0.4,0.4c-0.2,0.2-0.5,0.4-0.8,0.6c-0.3,0.2-0.6,0.5-1,0.7C182.3,48.4,182,48.6,181.6,48.7z M177.8,49.1
		c0,0.2,0,0.4,0,0.6c0,0.2,0.1,0.4,0.1,0.5c0.1,0.1,0.2,0.3,0.3,0.4c0.1,0.1,0.3,0.1,0.4,0.1c0.2,0,0.4,0,0.5-0.1
		c0.2-0.1,0.3-0.2,0.4-0.4c0.1-0.1,0.2-0.3,0.4-0.5c0.1-0.2,0.2-0.4,0.3-0.6c-0.1,0-0.2,0-0.2,0c-0.1,0-0.2,0-0.2,0
		c-0.4,0-0.8-0.1-1.1-0.4c-0.3-0.2-0.5-0.6-0.7-0.9c-0.1,0.2-0.1,0.5-0.2,0.7C177.8,48.7,177.8,48.9,177.8,49.1z M178.9,46.2
		c0,0.1,0,0.2,0,0.3c0,0.2,0,0.4,0,0.6c0,0.2,0.1,0.4,0.2,0.5c0.1,0.2,0.2,0.3,0.4,0.4c0.2,0.1,0.5,0.2,0.8,0.2c0.1,0,0.1,0,0.2,0
		c0.1,0,0.1,0,0.2,0c0-0.1,0.1-0.3,0.1-0.4s0-0.2,0-0.3c0-0.2,0-0.4,0-0.6c0-0.2-0.1-0.4-0.1-0.6c-0.1-0.2-0.1-0.3-0.2-0.4
		s-0.2-0.2-0.3-0.2c-0.2,0-0.4,0.1-0.6,0.2C179.2,45.8,179,46,178.9,46.2z"/>
	<path class="st2" d="M185.4,51.5c-0.4,0-0.8-0.1-1-0.2c-0.3-0.1-0.5-0.3-0.6-0.5c-0.1-0.2-0.3-0.4-0.3-0.6
		c-0.1-0.2-0.1-0.4-0.1-0.6c0-0.3,0-0.7,0.1-1c0.1-0.4,0.1-0.7,0.2-1c0.1-0.3,0.1-0.6,0.2-0.8c0.1-0.2,0.1-0.4,0.1-0.4
		c0.1-0.3,0.2-0.6,0.4-0.8c0.2-0.2,0.4-0.4,0.7-0.5c0.1,0,0.2,0,0.3-0.1c0.1,0,0.2,0,0.3,0s0.2,0,0.3,0c-0.3,0.8-0.5,1.4-0.7,1.9
		c-0.2,0.5-0.3,0.9-0.4,1.2c-0.1,0.4-0.2,0.7-0.2,0.9c-0.1,0.5,0,0.9,0.1,1.1c0.1,0.3,0.4,0.4,0.9,0.4c0.3,0,0.6-0.1,0.8-0.3
		c0.3-0.2,0.5-0.5,0.7-0.8c0-0.2,0-0.4,0-0.5c0-0.4,0-0.7,0.1-1c0.1-0.3,0.1-0.6,0.2-0.9c0.1-0.3,0.2-0.6,0.3-0.8
		c0.1-0.2,0.2-0.4,0.2-0.5c0.1-0.3,0.2-0.4,0.3-0.5c0.1-0.1,0.3-0.1,0.5-0.1c0.1,0,0.2,0,0.2,0c0.1,0,0.1,0,0.2,0
		c0.1,0,0.2,0.1,0.2,0.2c0,0.2,0,0.4,0,0.8c0,0.4-0.1,0.7-0.2,1.1c-0.1,0.3-0.2,0.6-0.2,0.8s-0.1,0.4-0.2,0.5
		c-0.1,0.1-0.1,0.3-0.2,0.4c-0.1,0.1-0.1,0.2-0.2,0.3c0,0.3,0,0.6,0.1,0.8c0,0.2,0.1,0.3,0.1,0.5c0,0.1,0.1,0.2,0.2,0.2
		c0.1,0,0.2,0.1,0.2,0.1c0.2,0,0.3-0.1,0.5-0.2c0.2-0.1,0.4-0.3,0.6-0.6c0.2-0.2,0.4-0.5,0.7-0.7c0.2-0.3,0.4-0.5,0.6-0.8
		c0.2-0.2,0.3-0.5,0.5-0.6s0.2-0.3,0.2-0.3c0.1-0.1,0.2-0.2,0.2-0.2c0.1,0,0.1,0,0.2,0c0,0,0.1,0.1,0.1,0.2c0,0.1,0,0.2-0.1,0.3
		c-0.2,0.4-0.5,0.9-0.8,1.3c-0.3,0.5-0.7,0.9-1,1.3c-0.4,0.4-0.7,0.7-1.1,1c-0.4,0.3-0.7,0.4-1.1,0.4c-0.3,0-0.5-0.1-0.7-0.3
		c-0.2-0.2-0.3-0.5-0.4-0.9c-0.3,0.4-0.5,0.7-0.9,0.9C186.2,51.4,185.8,51.5,185.4,51.5z"/>
	<path class="st2" d="M190.7,51.2c-0.1,0.1-0.2,0.2-0.3,0.2c-0.1,0-0.2,0-0.2,0c-0.1,0-0.1-0.1-0.1-0.2c0-0.1,0-0.2,0.1-0.3
		c0-0.1,0.1-0.2,0.2-0.4s0.3-0.5,0.4-0.8c0.2-0.3,0.3-0.7,0.5-1.1s0.4-0.7,0.5-1.1c0.2-0.3,0.3-0.6,0.5-0.9c0.1-0.3,0.2-0.5,0.3-0.6
		c-0.1-0.1-0.2-0.2-0.2-0.2s-0.1-0.2-0.1-0.3c0-0.1,0-0.3,0.1-0.6c0.1-0.2,0.2-0.5,0.3-0.7c0.1-0.2,0.3-0.4,0.5-0.6
		c0.2-0.2,0.3-0.2,0.5-0.2c0.3,0,0.5,0.1,0.6,0.3c0.1,0.2,0.2,0.4,0.2,0.6c0,0.1,0,0.3,0,0.5c0,0.2-0.1,0.4-0.2,0.6
		c0,0,0.1,0,0.1,0.1c0.1,0,0.1,0,0.3,0c0.2,0,0.3,0,0.4,0c0.1,0,0.2,0,0.3,0c0.2,0,0.3,0,0.5,0.1c0.1,0.1,0.2,0.2,0.3,0.3
		c0.1,0.1,0.1,0.3,0.2,0.4c0,0.2,0.1,0.3,0.1,0.4c0,0.3,0,0.6-0.2,0.9c-0.2,0.3-0.4,0.6-0.6,1c-0.2,0.2-0.3,0.5-0.5,0.7
		c-0.2,0.3-0.2,0.5-0.2,0.7c0,0.1,0.1,0.3,0.1,0.3c0.1,0.1,0.2,0.1,0.5,0.1c0.2,0,0.4-0.1,0.6-0.2c0.2-0.1,0.5-0.3,0.7-0.5
		s0.5-0.4,0.7-0.7c0.2-0.3,0.4-0.5,0.6-0.8s0.4-0.5,0.5-0.7c0.1-0.2,0.2-0.3,0.3-0.4c0.1-0.1,0.1-0.1,0.2-0.2s0.2,0,0.2,0
		c0.1,0,0.1,0.1,0.1,0.2s0,0.2-0.1,0.4c-0.1,0.1-0.2,0.3-0.3,0.5c-0.2,0.2-0.4,0.5-0.6,0.8c-0.2,0.3-0.5,0.6-0.7,0.9
		c-0.3,0.3-0.6,0.6-0.9,0.9c-0.3,0.3-0.6,0.5-0.9,0.6c-0.3,0.2-0.6,0.2-0.9,0.2c-0.3,0-0.5-0.1-0.7-0.2c-0.2-0.1-0.3-0.2-0.5-0.4
		c-0.1-0.2-0.2-0.3-0.2-0.5c0-0.2-0.1-0.4-0.1-0.5c0-0.1,0-0.3,0.1-0.4c0.1-0.1,0.1-0.3,0.2-0.5c0.1-0.2,0.2-0.3,0.3-0.5
		c0.1-0.2,0.2-0.3,0.3-0.5c0.2-0.3,0.3-0.6,0.5-0.8c0.1-0.2,0.2-0.4,0.2-0.6c0-0.1,0-0.2-0.1-0.3c0-0.1-0.1-0.1-0.2-0.1
		c-0.1,0-0.1,0-0.1,0c0,0-0.1,0-0.1,0c0,0-0.1,0-0.1,0c0,0-0.1,0-0.2,0c-0.1,0-0.3,0-0.4-0.1c-0.1,0-0.2-0.1-0.3-0.1
		c0,0.1-0.1,0.2-0.3,0.5c-0.2,0.3-0.3,0.5-0.5,0.9c-0.2,0.3-0.4,0.7-0.6,1.1c-0.2,0.4-0.4,0.7-0.6,1c-0.2,0.3-0.4,0.6-0.5,0.8
		C190.8,51,190.7,51.2,190.7,51.2z"/>
	<path class="st2" d="M207.7,45.5c0.2-0.5,0.5-0.9,0.7-1.4c0.2-0.5,0.4-0.9,0.6-1.3c0.2-0.4,0.3-0.7,0.5-1.1
		c0.1-0.3,0.2-0.6,0.2-0.7c0-0.2,0-0.4,0-0.5c-0.1-0.1-0.1-0.3-0.3-0.3c-0.1-0.1-0.3-0.2-0.4-0.2c-0.2,0-0.4-0.1-0.6-0.1
		c-0.4,0-0.8,0-1.3,0c-0.5,0-1,0.1-1.4,0.2c-0.5,0.1-0.9,0.2-1.2,0.4c-0.3,0.2-0.5,0.4-0.5,0.7c0,0.2,0,0.3,0.1,0.4
		c0.1,0.1,0.2,0.2,0.3,0.3c0.1,0.1,0.4,0.1,0.7,0.1c0.1,0,0.1,0,0.2,0c0.1,0,0.1,0,0.2,0c0.1,0,0.2,0,0.3-0.1L205,43
		c-0.2,0.2-0.3,0.4-0.5,0.4c-0.2,0-0.3,0.1-0.5,0c-0.1,0-0.2,0-0.5-0.1c-0.2-0.1-0.4-0.2-0.7-0.3c-0.2-0.1-0.4-0.3-0.6-0.5
		c-0.2-0.2-0.2-0.5-0.2-0.8c0-0.4,0.2-0.8,0.5-1.1c0.3-0.3,0.7-0.6,1.2-0.9c0.5-0.2,1.2-0.4,1.9-0.6c0.7-0.1,1.6-0.2,2.5-0.2
		c0.7,0,1.3,0.1,1.7,0.2c0.4,0.1,0.7,0.3,0.9,0.6c0.2,0.2,0.3,0.5,0.3,0.8c0,0.3-0.1,0.6-0.2,1c-0.1,0.2-0.2,0.4-0.3,0.6
		c-0.1,0.3-0.3,0.6-0.5,0.9c-0.2,0.4-0.4,0.7-0.6,1.2s-0.4,0.9-0.6,1.3c0.3,0,0.6,0,0.8,0.1c0.2,0,0.4,0.1,0.6,0.1
		c0.2,0,0.2,0.1,0.2,0.2c-0.1,0.2-0.2,0.3-0.3,0.4c-0.1,0.1-0.2,0.2-0.3,0.2c-0.1,0-0.2,0.1-0.4,0c-0.1,0-0.3,0-0.4,0
		c-0.1,0-0.2,0-0.3,0c-0.1,0-0.2,0-0.3,0c-0.2,0.5-0.4,1-0.6,1.5c-0.2,0.5-0.4,0.9-0.5,1.4c-0.2,0.4-0.3,0.8-0.4,1.2
		c-0.1,0.4-0.2,0.7-0.2,0.9c-0.1,0.3-0.1,0.7-0.1,1c0,0.3,0,0.5,0,0.8c0,0.3,0,0.5,0.1,0.7c-0.2,0.1-0.4,0.1-0.6,0.2
		c-0.2,0-0.3,0.1-0.4,0.1c-0.1,0-0.2,0.1-0.3,0.1c-0.3,0.1-0.5,0.1-0.6,0c-0.1-0.1-0.2-0.3-0.1-0.7c0-0.2,0.1-0.5,0.1-0.8
		c0-0.3,0.1-0.6,0.2-1c0.1-0.4,0.2-0.8,0.4-1.3c0.2-0.5,0.4-1,0.6-1.6c0.2-0.3,0.3-0.7,0.5-1.1c0.2-0.4,0.4-0.8,0.6-1.3
		c-0.5,0-1,0-1.6,0.1c-0.3,0-0.6,0.1-0.9,0.1c-0.3,0.1-0.5,0.1-0.8,0.2c-0.3,0.1-0.6,0.2-0.8,0.2c0-0.1-0.1-0.2-0.1-0.3
		c0-0.1,0-0.2,0-0.2c0-0.1,0-0.2,0-0.2c0-0.1,0.1-0.2,0.1-0.2c0.1-0.1,0.2-0.3,0.3-0.5c0.5-0.1,1-0.1,1.5-0.1c0.5,0,0.9-0.1,1.2-0.1
		c0.4,0,0.8,0,1.2,0c0.1,0,0.1,0,0.1,0C207.6,45.5,207.6,45.5,207.7,45.5z"/>
	<path class="st2" d="M212.6,45.1c0.1-0.1,0.2-0.1,0.3-0.2c0.2,0,0.3-0.1,0.5-0.1c0.2,0,0.3,0,0.5,0c0.1,0,0.2,0,0.2,0
		c0,0,0,0.1-0.1,0.3c-0.1,0.2-0.1,0.5-0.2,0.8c-0.1,0.3-0.2,0.6-0.3,0.9c-0.1,0.3-0.2,0.6-0.2,0.8c-0.1,0.2-0.1,0.4-0.2,0.7
		c-0.1,0.2-0.1,0.5-0.2,0.7c-0.1,0.2-0.1,0.5-0.1,0.7c0,0.2,0,0.4,0,0.5c0.1,0.1,0.1,0.2,0.2,0.3c0.1,0,0.1,0.1,0.2,0.1
		c0.2,0,0.5-0.1,0.8-0.4c0.3-0.2,0.7-0.5,1-0.9c0.3-0.3,0.7-0.7,1-1s0.5-0.6,0.7-0.8c0.1-0.1,0.2-0.2,0.3-0.2c0.1,0,0.2,0,0.2,0
		c0.1,0,0.1,0.1,0.1,0.2c0,0.1,0,0.2-0.1,0.3c-0.2,0.3-0.4,0.7-0.8,1.1c-0.3,0.4-0.7,0.8-1.1,1.2c-0.4,0.4-0.8,0.7-1.1,1
		c-0.4,0.3-0.7,0.4-0.9,0.4c-0.2,0-0.4,0-0.6-0.1c-0.2-0.1-0.3-0.2-0.5-0.3c-0.1-0.1-0.3-0.3-0.4-0.4c-0.1-0.2-0.2-0.3-0.2-0.5
		c0-0.3,0-0.6,0-1.1s0.1-1,0.2-1.5c0.1-0.5,0.2-1,0.3-1.4C212.3,45.7,212.4,45.3,212.6,45.1z M214.9,41.6c0,0.1-0.1,0.2-0.2,0.4
		c-0.1,0.1-0.2,0.2-0.3,0.3c-0.1,0.1-0.2,0.1-0.4,0.1c-0.1,0-0.2,0-0.3-0.1c-0.2-0.2-0.4-0.4-0.4-0.6c0-0.2,0-0.4,0.1-0.6
		c0.1-0.2,0.2-0.3,0.4-0.5c0.2-0.1,0.3-0.2,0.4-0.2c0.1,0,0.2,0,0.3,0.1c0.1,0.1,0.1,0.2,0.2,0.3c0,0.1,0.1,0.2,0.1,0.4
		C214.9,41.4,214.9,41.5,214.9,41.6z"/>
	<path class="st2" d="M215.2,51.2c-0.1,0.1-0.2,0.2-0.3,0.2c-0.1,0-0.2,0-0.2,0c-0.1,0-0.1-0.1-0.1-0.2c0-0.1,0-0.2,0.1-0.3
		c0-0.1,0.1-0.2,0.2-0.4c0.1-0.2,0.3-0.5,0.4-0.8c0.2-0.3,0.3-0.7,0.5-1.1c0.2-0.4,0.4-0.7,0.5-1.1c0.2-0.3,0.3-0.6,0.5-0.9
		c0.1-0.3,0.2-0.5,0.3-0.6c-0.1-0.1-0.2-0.2-0.2-0.2c0,0-0.1-0.2-0.1-0.3c0-0.1,0-0.3,0.1-0.6c0.1-0.2,0.2-0.5,0.3-0.7
		c0.1-0.2,0.3-0.4,0.5-0.6c0.2-0.2,0.3-0.2,0.5-0.2c0.3,0,0.5,0.1,0.6,0.3c0.1,0.2,0.2,0.4,0.2,0.6c0,0.1,0,0.3,0,0.5
		c0,0.2-0.1,0.4-0.2,0.6c0,0,0.1,0,0.1,0.1c0.1,0,0.1,0,0.3,0c0.2,0,0.3,0,0.4,0c0.1,0,0.2,0,0.3,0c0.2,0,0.3,0,0.5,0.1
		c0.1,0.1,0.2,0.2,0.3,0.3c0.1,0.1,0.1,0.3,0.2,0.4c0,0.2,0.1,0.3,0.1,0.4c0,0.3,0,0.6-0.2,0.9c-0.2,0.3-0.4,0.6-0.6,1
		c-0.2,0.2-0.3,0.5-0.5,0.7c-0.2,0.3-0.2,0.5-0.2,0.7c0,0.1,0.1,0.3,0.1,0.3c0.1,0.1,0.2,0.1,0.5,0.1c0.2,0,0.4-0.1,0.6-0.2
		c0.2-0.1,0.5-0.3,0.7-0.5c0.2-0.2,0.5-0.4,0.7-0.7c0.2-0.3,0.4-0.5,0.6-0.8s0.4-0.5,0.5-0.7c0.1-0.2,0.2-0.3,0.3-0.4
		c0.1-0.1,0.1-0.1,0.2-0.2c0.1,0,0.2,0,0.2,0s0.1,0.1,0.1,0.2s0,0.2-0.1,0.4c-0.1,0.1-0.2,0.3-0.3,0.5c-0.2,0.2-0.4,0.5-0.6,0.8
		c-0.2,0.3-0.5,0.6-0.7,0.9c-0.3,0.3-0.6,0.6-0.9,0.9c-0.3,0.3-0.6,0.5-0.9,0.6c-0.3,0.2-0.6,0.2-0.9,0.2c-0.3,0-0.5-0.1-0.7-0.2
		c-0.2-0.1-0.3-0.2-0.5-0.4c-0.1-0.2-0.2-0.3-0.2-0.5c0-0.2-0.1-0.4-0.1-0.5c0-0.1,0-0.3,0.1-0.4c0.1-0.1,0.1-0.3,0.2-0.5
		c0.1-0.2,0.2-0.3,0.3-0.5c0.1-0.2,0.2-0.3,0.3-0.5c0.2-0.3,0.3-0.6,0.5-0.8c0.1-0.2,0.2-0.4,0.2-0.6c0-0.1,0-0.2-0.1-0.3
		c0-0.1-0.1-0.1-0.2-0.1c-0.1,0-0.1,0-0.1,0c0,0-0.1,0-0.1,0c0,0-0.1,0-0.1,0c0,0-0.1,0-0.2,0c-0.1,0-0.3,0-0.4-0.1
		c-0.1,0-0.2-0.1-0.3-0.1c0,0.1-0.1,0.2-0.3,0.5c-0.2,0.3-0.3,0.5-0.5,0.9c-0.2,0.3-0.4,0.7-0.6,1.1c-0.2,0.4-0.4,0.7-0.6,1
		c-0.2,0.3-0.4,0.6-0.5,0.8C215.4,51,215.3,51.2,215.2,51.2z"/>
	<path class="st2" d="M230.1,47.9c-0.3,0.5-0.7,1-1.1,1.4c-0.4,0.5-0.9,0.9-1.3,1.2c-0.5,0.4-0.9,0.6-1.4,0.9
		c-0.5,0.2-1,0.3-1.4,0.3c-0.2,0-0.5-0.1-0.8-0.2c-0.3-0.1-0.5-0.3-0.8-0.5c-0.2-0.2-0.4-0.6-0.6-0.9c-0.1-0.4-0.2-0.8-0.1-1.4
		c0-0.4,0.2-0.9,0.4-1.4c0.2-0.5,0.5-1,0.9-1.4c0.3-0.4,0.7-0.8,1.2-1c0.4-0.3,0.9-0.4,1.3-0.4c0.4,0,0.7,0.1,0.9,0.3
		c0.2,0.2,0.3,0.5,0.2,0.8c0,0.3-0.1,0.7-0.3,0.9c-0.2,0.3-0.3,0.5-0.6,0.8c-0.2,0.2-0.5,0.4-0.7,0.6c-0.2,0.2-0.5,0.4-0.7,0.5
		c-0.2,0.2-0.5,0.3-0.7,0.5c-0.2,0.1-0.4,0.3-0.6,0.4c0,0.3,0.1,0.5,0.1,0.7c0.1,0.2,0.2,0.3,0.3,0.5s0.3,0.2,0.5,0.2
		c0.2,0,0.3,0.1,0.5,0.1c0.4,0,0.8-0.1,1.2-0.4c0.4-0.2,0.8-0.5,1.2-0.9c0.4-0.3,0.7-0.7,1.1-1c0.3-0.4,0.6-0.7,0.8-0.9
		c0.1-0.1,0.2-0.1,0.2-0.2c0.1,0,0.1,0,0.2,0c0,0,0.1,0.1,0.1,0.2C230.3,47.6,230.2,47.7,230.1,47.9z M225.9,45.3
		c-0.1,0-0.3,0.1-0.5,0.2c-0.2,0.1-0.4,0.3-0.5,0.6c-0.2,0.2-0.3,0.5-0.5,0.9c-0.2,0.4-0.3,0.8-0.3,1.2c0.1-0.1,0.3-0.2,0.4-0.3
		c0.2-0.1,0.3-0.2,0.5-0.3c0.5-0.4,0.8-0.7,1-1c0.2-0.3,0.3-0.5,0.3-0.7c0-0.2,0-0.4-0.1-0.5C226.2,45.4,226.1,45.3,225.9,45.3z"/>
</g>
</svg>
